# MagicaVoxel @ Ephtracy

# group
o 

# material
mtllib box.mtl
usemtl palette

# normals
vn -1 0 0
vn 1 0 0
vn 0 0 1
vn 0 0 -1
vn 0 -1 0
vn 0 1 0

# texcoords
vt 0.0996094 0.5
vt 0.107422 0.5
vt 0.111328 0.5
vt 0.123047 0.5
vt 0.126953 0.5
vt 0.130859 0.5
vt 0.134766 0.5
vt 0.138672 0.5
vt 0.267578 0.5
vt 0.271484 0.5
vt 0.279297 0.5
vt 0.302734 0.5
vt 0.384766 0.5
vt 0.404297 0.5
vt 0.408203 0.5
vt 0.412109 0.5
vt 0.416016 0.5
vt 0.419922 0.5
vt 0.521484 0.5
vt 0.564453 0.5
vt 0.583984 0.5
vt 0.587891 0.5
vt 0.607422 0.5
vt 0.611328 0.5
vt 0.619141 0.5
vt 0.638672 0.5
vt 0.654297 0.5
vt 0.658203 0.5
vt 0.677734 0.5
vt 0.681641 0.5
vt 0.708984 0.5
vt 0.712891 0.5
vt 0.716797 0.5
vt 0.744141 0.5
vt 0.748047 0.5
vt 0.830078 0.5
vt 0.837891 0.5
vt 0.841797 0.5
vt 0.845703 0.5
vt 0.849609 0.5
vt 0.861328 0.5
vt 0.869141 0.5
vt 0.880859 0.5
vt 0.884766 0.5
vt 0.888672 0.5
vt 0.892578 0.5
vt 0.896484 0.5
vt 0.900391 0.5
vt 0.904297 0.5
vt 0.912109 0.5

# verts
v 1.8 2 -1.7
v 1.8 2 -1.8
v 1.8 2 -1.9
v 1.8 2 -2
v 1.8 2 -2.1
v 1.8 2 -2.2
v 1.8 2 -2.3
v 1.8 2 -2.4
v 1.8 2 -2.5
v 1.8 2.1 -1.7
v 1.8 2.1 -1.8
v 1.8 2.1 -1.9
v 1.8 2.1 -2
v 1.8 2.1 -2.1
v 1.8 2.1 -2.2
v 1.8 2.1 -2.3
v 1.8 2.1 -2.4
v 1.8 2.1 -2.5
v 1.8 2.2 -1.7
v 1.8 2.2 -1.8
v 1.8 2.2 -1.9
v 1.8 2.2 -2
v 1.8 2.2 -2.1
v 1.8 2.2 -2.2
v 1.8 2.2 -2.3
v 1.8 2.2 -2.4
v 1.8 2.2 -2.5
v 1.8 2.3 -1.7
v 1.8 2.3 -1.8
v 1.8 2.3 -1.9
v 1.8 2.3 -2
v 1.8 2.3 -2.1
v 1.8 2.3 -2.2
v 1.8 2.3 -2.3
v 1.8 2.3 -2.4
v 1.8 2.3 -2.5
v 1.8 2.4 -1.7
v 1.8 2.4 -1.8
v 1.8 2.4 -1.9
v 1.8 2.4 -2
v 1.8 2.4 -2.1
v 1.8 2.4 -2.2
v 1.8 2.4 -2.3
v 1.8 2.4 -2.4
v 1.8 2.4 -2.5
v 1.8 2.5 -1.7
v 1.8 2.5 -1.8
v 1.8 2.5 -1.9
v 1.8 2.5 -2
v 1.8 2.5 -2.1
v 1.8 2.5 -2.2
v 1.8 2.5 -2.3
v 1.8 2.5 -2.4
v 1.8 2.5 -2.5
v 1.8 2.6 -1.7
v 1.8 2.6 -1.8
v 1.8 2.6 -1.9
v 1.8 2.6 -2
v 1.8 2.6 -2.1
v 1.8 2.6 -2.2
v 1.8 2.6 -2.3
v 1.8 2.6 -2.4
v 1.8 2.6 -2.5
v 1.8 2.7 -1.7
v 1.8 2.7 -2.5
v 2.5 2 -1.7
v 2.5 2 -1.8
v 2.5 2 -1.9
v 2.5 2 -2
v 2.5 2 -2.1
v 2.5 2 -2.2
v 2.5 2 -2.3
v 2.5 2 -2.4
v 2.5 2 -2.5
v 2.5 2.1 -1.7
v 2.5 2.1 -1.8
v 2.5 2.1 -1.9
v 2.5 2.1 -2
v 2.5 2.1 -2.1
v 2.5 2.1 -2.2
v 2.5 2.1 -2.3
v 2.5 2.1 -2.4
v 2.5 2.1 -2.5
v 2.5 2.2 -1.7
v 2.5 2.2 -1.8
v 2.5 2.2 -1.9
v 2.5 2.2 -2
v 2.5 2.2 -2.1
v 2.5 2.2 -2.2
v 2.5 2.2 -2.3
v 2.5 2.2 -2.4
v 2.5 2.2 -2.5
v 2.5 2.3 -1.7
v 2.5 2.3 -1.8
v 2.5 2.3 -1.9
v 2.5 2.3 -2
v 2.5 2.3 -2.1
v 2.5 2.3 -2.2
v 2.5 2.3 -2.3
v 2.5 2.3 -2.4
v 2.5 2.3 -2.5
v 2.5 2.4 -1.7
v 2.5 2.4 -1.8
v 2.5 2.4 -1.9
v 2.5 2.4 -2
v 2.5 2.4 -2.1
v 2.5 2.4 -2.2
v 2.5 2.4 -2.3
v 2.5 2.4 -2.4
v 2.5 2.4 -2.5
v 2.5 2.5 -1.7
v 2.5 2.5 -1.8
v 2.5 2.5 -1.9
v 2.5 2.5 -2
v 2.5 2.5 -2.1
v 2.5 2.5 -2.2
v 2.5 2.5 -2.3
v 2.5 2.5 -2.4
v 2.5 2.5 -2.5
v 2.5 2.6 -1.7
v 2.5 2.6 -1.8
v 2.5 2.6 -1.9
v 2.5 2.6 -2
v 2.5 2.6 -2.1
v 2.5 2.6 -2.2
v 2.5 2.6 -2.3
v 2.5 2.6 -2.4
v 2.5 2.6 -2.5
v 2.5 2.7 -1.7
v 2.5 2.7 -2.5
v 1.8 2 -1.7
v 1.8 2.1 -1.7
v 1.8 2.2 -1.7
v 1.8 2.3 -1.7
v 1.8 2.4 -1.7
v 1.8 2.5 -1.7
v 1.8 2.6 -1.7
v 1.8 2.7 -1.7
v 1.9 2 -1.7
v 1.9 2.1 -1.7
v 1.9 2.2 -1.7
v 1.9 2.3 -1.7
v 2 2 -1.7
v 2 2.1 -1.7
v 2 2.2 -1.7
v 2 2.3 -1.7
v 2.1 2 -1.7
v 2.1 2.1 -1.7
v 2.1 2.2 -1.7
v 2.1 2.3 -1.7
v 2.2 2 -1.7
v 2.2 2.1 -1.7
v 2.2 2.2 -1.7
v 2.2 2.3 -1.7
v 2.3 2 -1.7
v 2.3 2.1 -1.7
v 2.3 2.2 -1.7
v 2.3 2.3 -1.7
v 2.4 2 -1.7
v 2.4 2.1 -1.7
v 2.4 2.2 -1.7
v 2.4 2.3 -1.7
v 2.5 2 -1.7
v 2.5 2.1 -1.7
v 2.5 2.2 -1.7
v 2.5 2.3 -1.7
v 2.5 2.4 -1.7
v 2.5 2.5 -1.7
v 2.5 2.6 -1.7
v 2.5 2.7 -1.7
v 1.8 2 -2.5
v 1.8 2.1 -2.5
v 1.8 2.2 -2.5
v 1.8 2.3 -2.5
v 1.8 2.4 -2.5
v 1.8 2.5 -2.5
v 1.8 2.6 -2.5
v 1.8 2.7 -2.5
v 1.9 2 -2.5
v 1.9 2.1 -2.5
v 1.9 2.2 -2.5
v 1.9 2.3 -2.5
v 2 2 -2.5
v 2 2.1 -2.5
v 2 2.2 -2.5
v 2 2.3 -2.5
v 2.1 2 -2.5
v 2.1 2.1 -2.5
v 2.1 2.2 -2.5
v 2.1 2.3 -2.5
v 2.2 2 -2.5
v 2.2 2.1 -2.5
v 2.2 2.2 -2.5
v 2.2 2.3 -2.5
v 2.3 2 -2.5
v 2.3 2.1 -2.5
v 2.3 2.2 -2.5
v 2.3 2.3 -2.5
v 2.4 2 -2.5
v 2.4 2.1 -2.5
v 2.4 2.2 -2.5
v 2.4 2.3 -2.5
v 2.5 2 -2.5
v 2.5 2.1 -2.5
v 2.5 2.2 -2.5
v 2.5 2.3 -2.5
v 2.5 2.4 -2.5
v 2.5 2.5 -2.5
v 2.5 2.6 -2.5
v 2.5 2.7 -2.5
v 1.8 2 -1.7
v 1.9 2 -1.7
v 2 2 -1.7
v 2.1 2 -1.7
v 2.2 2 -1.7
v 2.3 2 -1.7
v 2.4 2 -1.7
v 2.5 2 -1.7
v 1.8 2 -1.8
v 1.9 2 -1.8
v 2.4 2 -1.8
v 2.5 2 -1.8
v 1.8 2 -1.9
v 1.9 2 -1.9
v 2.4 2 -1.9
v 2.5 2 -1.9
v 1.8 2 -2
v 1.9 2 -2
v 2.4 2 -2
v 2.5 2 -2
v 1.8 2 -2.1
v 1.9 2 -2.1
v 2.4 2 -2.1
v 2.5 2 -2.1
v 1.8 2 -2.2
v 1.9 2 -2.2
v 2.4 2 -2.2
v 2.5 2 -2.2
v 1.8 2 -2.3
v 1.9 2 -2.3
v 2.4 2 -2.3
v 2.5 2 -2.3
v 1.8 2 -2.4
v 1.9 2 -2.4
v 2.4 2 -2.4
v 2.5 2 -2.4
v 1.8 2 -2.5
v 1.9 2 -2.5
v 2 2 -2.5
v 2.1 2 -2.5
v 2.2 2 -2.5
v 2.3 2 -2.5
v 2.4 2 -2.5
v 2.5 2 -2.5
v 1.8 2.7 -1.7
v 2.5 2.7 -1.7
v 1.8 2.7 -2.5
v 2.5 2.7 -2.5

# faces
f 10/43/1 2/43/1 1/43/1
f 11/44/1 3/44/1 2/44/1
f 11/43/1 2/43/1 10/43/1
f 12/35/1 4/35/1 3/35/1
f 12/44/1 3/44/1 11/44/1
f 13/47/1 5/47/1 4/47/1
f 13/35/1 4/35/1 12/35/1
f 14/48/1 6/48/1 5/48/1
f 14/47/1 5/47/1 13/47/1
f 15/27/1 7/27/1 6/27/1
f 15/48/1 6/48/1 14/48/1
f 16/50/1 8/50/1 7/50/1
f 16/27/1 7/27/1 15/27/1
f 17/29/1 9/29/1 8/29/1
f 17/50/1 8/50/1 16/50/1
f 18/29/1 9/29/1 17/29/1
f 19/18/1 11/18/1 10/18/1
f 20/17/1 12/17/1 11/17/1
f 20/18/1 11/18/1 19/18/1
f 21/16/1 13/16/1 12/16/1
f 21/17/1 12/17/1 20/17/1
f 22/15/1 14/15/1 13/15/1
f 22/16/1 13/16/1 21/16/1
f 23/6/1 15/6/1 14/6/1
f 23/15/1 14/15/1 22/15/1
f 24/5/1 16/5/1 15/5/1
f 24/6/1 15/6/1 23/6/1
f 25/1/1 17/1/1 16/1/1
f 25/5/1 16/5/1 24/5/1
f 26/2/1 18/2/1 17/2/1
f 26/1/1 17/1/1 25/1/1
f 27/2/1 18/2/1 26/2/1
f 28/49/1 23/49/1 22/49/1
f 28/49/1 20/49/1 19/49/1
f 28/49/1 27/49/1 26/49/1
f 28/49/1 26/49/1 25/49/1
f 28/49/1 25/49/1 24/49/1
f 28/49/1 24/49/1 23/49/1
f 28/49/1 22/49/1 21/49/1
f 28/49/1 21/49/1 20/49/1
f 29/49/1 27/49/1 28/49/1
f 30/49/1 27/49/1 29/49/1
f 31/49/1 27/49/1 30/49/1
f 32/49/1 27/49/1 31/49/1
f 33/49/1 27/49/1 32/49/1
f 34/49/1 27/49/1 33/49/1
f 35/49/1 27/49/1 34/49/1
f 36/49/1 27/49/1 35/49/1
f 37/37/1 29/37/1 28/37/1
f 38/36/1 30/36/1 29/36/1
f 38/37/1 29/37/1 37/37/1
f 39/30/1 31/30/1 30/30/1
f 39/36/1 30/36/1 38/36/1
f 40/28/1 32/28/1 31/28/1
f 40/30/1 31/30/1 39/30/1
f 41/26/1 33/26/1 32/26/1
f 41/28/1 32/28/1 40/28/1
f 42/25/1 34/25/1 33/25/1
f 42/26/1 33/26/1 41/26/1
f 43/22/1 35/22/1 34/22/1
f 43/25/1 34/25/1 42/25/1
f 44/20/1 36/20/1 35/20/1
f 44/22/1 35/22/1 43/22/1
f 45/20/1 36/20/1 44/20/1
f 46/42/1 38/42/1 37/42/1
f 47/41/1 39/41/1 38/41/1
f 47/42/1 38/42/1 46/42/1
f 48/40/1 40/40/1 39/40/1
f 48/41/1 39/41/1 47/41/1
f 49/11/1 41/11/1 40/11/1
f 49/40/1 40/40/1 48/40/1
f 50/8/1 42/8/1 41/8/1
f 50/11/1 41/11/1 49/11/1
f 51/11/1 43/11/1 42/11/1
f 51/8/1 42/8/1 50/8/1
f 52/39/1 44/39/1 43/39/1
f 52/11/1 43/11/1 51/11/1
f 53/38/1 45/38/1 44/38/1
f 53/39/1 44/39/1 52/39/1
f 54/38/1 45/38/1 53/38/1
f 55/9/1 47/9/1 46/9/1
f 56/10/1 48/10/1 47/10/1
f 56/9/1 47/9/1 55/9/1
f 57/5/1 49/5/1 48/5/1
f 57/10/1 48/10/1 56/10/1
f 58/6/1 50/6/1 49/6/1
f 58/5/1 49/5/1 57/5/1
f 59/7/1 51/7/1 50/7/1
f 59/6/1 50/6/1 58/6/1
f 60/4/1 52/4/1 51/4/1
f 60/7/1 51/7/1 59/7/1
f 61/3/1 53/3/1 52/3/1
f 61/4/1 52/4/1 60/4/1
f 62/2/1 54/2/1 53/2/1
f 62/3/1 53/3/1 61/3/1
f 63/2/1 54/2/1 62/2/1
f 64/22/1 56/22/1 55/22/1
f 64/22/1 57/22/1 56/22/1
f 64/22/1 63/22/1 62/22/1
f 64/22/1 62/22/1 61/22/1
f 64/22/1 61/22/1 60/22/1
f 64/22/1 60/22/1 59/22/1
f 64/22/1 59/22/1 58/22/1
f 64/22/1 58/22/1 57/22/1
f 65/22/1 63/22/1 64/22/1
f 66/14/2 67/14/2 75/14/2
f 67/16/2 68/16/2 76/16/2
f 75/14/2 67/14/2 76/14/2
f 68/13/2 69/13/2 77/13/2
f 76/16/2 68/16/2 77/16/2
f 69/19/2 70/19/2 78/19/2
f 77/13/2 69/13/2 78/13/2
f 70/13/2 71/13/2 79/13/2
f 78/19/2 70/19/2 79/19/2
f 71/19/2 72/19/2 80/19/2
f 79/13/2 71/13/2 80/13/2
f 72/13/2 73/13/2 81/13/2
f 80/19/2 72/19/2 81/19/2
f 73/19/2 74/19/2 82/19/2
f 81/13/2 73/13/2 82/13/2
f 82/19/2 74/19/2 83/19/2
f 75/18/2 76/18/2 84/18/2
f 76/17/2 77/17/2 85/17/2
f 84/18/2 76/18/2 85/18/2
f 77/16/2 78/16/2 86/16/2
f 85/17/2 77/17/2 86/17/2
f 78/15/2 79/15/2 87/15/2
f 86/16/2 78/16/2 87/16/2
f 79/6/2 80/6/2 88/6/2
f 87/15/2 79/15/2 88/15/2
f 80/5/2 81/5/2 89/5/2
f 88/6/2 80/6/2 89/6/2
f 81/1/2 82/1/2 90/1/2
f 89/5/2 81/5/2 90/5/2
f 82/2/2 83/2/2 91/2/2
f 90/1/2 82/1/2 91/1/2
f 91/2/2 83/2/2 92/2/2
f 84/49/2 85/49/2 93/49/2
f 85/48/2 86/48/2 94/48/2
f 93/49/2 85/49/2 94/49/2
f 86/47/2 87/47/2 95/47/2
f 94/48/2 86/48/2 95/48/2
f 87/46/2 88/46/2 96/46/2
f 95/47/2 87/47/2 96/47/2
f 88/45/2 89/45/2 97/45/2
f 96/46/2 88/46/2 97/46/2
f 89/44/2 90/44/2 98/44/2
f 97/45/2 89/45/2 98/45/2
f 90/43/2 91/43/2 99/43/2
f 98/44/2 90/44/2 99/44/2
f 91/12/2 92/12/2 100/12/2
f 99/43/2 91/43/2 100/43/2
f 100/12/2 92/12/2 101/12/2
f 93/37/2 94/37/2 102/37/2
f 94/36/2 95/36/2 103/36/2
f 102/37/2 94/37/2 103/37/2
f 95/30/2 96/30/2 104/30/2
f 103/36/2 95/36/2 104/36/2
f 96/28/2 97/28/2 105/28/2
f 104/30/2 96/30/2 105/30/2
f 97/26/2 98/26/2 106/26/2
f 105/28/2 97/28/2 106/28/2
f 98/25/2 99/25/2 107/25/2
f 106/26/2 98/26/2 107/26/2
f 99/22/2 100/22/2 108/22/2
f 107/25/2 99/25/2 108/25/2
f 100/20/2 101/20/2 109/20/2
f 108/22/2 100/22/2 109/22/2
f 109/20/2 101/20/2 110/20/2
f 102/42/2 103/42/2 111/42/2
f 103/41/2 104/41/2 112/41/2
f 111/42/2 103/42/2 112/42/2
f 104/40/2 105/40/2 113/40/2
f 112/41/2 104/41/2 113/41/2
f 105/11/2 106/11/2 114/11/2
f 113/40/2 105/40/2 114/40/2
f 106/8/2 107/8/2 115/8/2
f 114/11/2 106/11/2 115/11/2
f 107/11/2 108/11/2 116/11/2
f 115/8/2 107/8/2 116/8/2
f 108/39/2 109/39/2 117/39/2
f 116/11/2 108/11/2 117/11/2
f 109/38/2 110/38/2 118/38/2
f 117/39/2 109/39/2 118/39/2
f 118/38/2 110/38/2 119/38/2
f 111/9/2 112/9/2 120/9/2
f 112/10/2 113/10/2 121/10/2
f 120/9/2 112/9/2 121/9/2
f 113/5/2 114/5/2 122/5/2
f 121/10/2 113/10/2 122/10/2
f 114/6/2 115/6/2 123/6/2
f 122/5/2 114/5/2 123/5/2
f 115/7/2 116/7/2 124/7/2
f 123/6/2 115/6/2 124/6/2
f 116/4/2 117/4/2 125/4/2
f 124/7/2 116/7/2 125/7/2
f 117/3/2 118/3/2 126/3/2
f 125/4/2 117/4/2 126/4/2
f 118/2/2 119/2/2 127/2/2
f 126/3/2 118/3/2 127/3/2
f 127/2/2 119/2/2 128/2/2
f 120/22/2 121/22/2 129/22/2
f 121/22/2 122/22/2 129/22/2
f 127/22/2 128/22/2 129/22/2
f 126/22/2 127/22/2 129/22/2
f 125/22/2 126/22/2 129/22/2
f 124/22/2 125/22/2 129/22/2
f 123/22/2 124/22/2 129/22/2
f 122/22/2 123/22/2 129/22/2
f 129/22/2 128/22/2 130/22/2
f 139/43/3 132/43/3 131/43/3
f 140/18/3 133/18/3 132/18/3
f 140/43/3 132/43/3 139/43/3
f 141/49/3 134/49/3 133/49/3
f 141/18/3 133/18/3 140/18/3
f 142/37/3 135/37/3 134/37/3
f 142/49/3 134/49/3 141/49/3
f 143/34/3 140/34/3 139/34/3
f 144/18/3 141/18/3 140/18/3
f 144/34/3 140/34/3 143/34/3
f 145/48/3 142/48/3 141/48/3
f 145/18/3 141/18/3 144/18/3
f 146/37/3 135/37/3 142/37/3
f 146/48/3 142/48/3 145/48/3
f 147/33/3 144/33/3 143/33/3
f 148/18/3 145/18/3 144/18/3
f 148/33/3 144/33/3 147/33/3
f 149/46/3 146/46/3 145/46/3
f 149/18/3 145/18/3 148/18/3
f 150/37/3 135/37/3 146/37/3
f 150/46/3 146/46/3 149/46/3
f 151/32/3 148/32/3 147/32/3
f 152/18/3 149/18/3 148/18/3
f 152/32/3 148/32/3 151/32/3
f 153/35/3 150/35/3 149/35/3
f 153/18/3 149/18/3 152/18/3
f 154/37/3 135/37/3 150/37/3
f 154/35/3 150/35/3 153/35/3
f 155/31/3 152/31/3 151/31/3
f 156/18/3 153/18/3 152/18/3
f 156/31/3 152/31/3 155/31/3
f 157/23/3 154/23/3 153/23/3
f 157/18/3 153/18/3 156/18/3
f 158/37/3 135/37/3 154/37/3
f 158/23/3 154/23/3 157/23/3
f 159/24/3 156/24/3 155/24/3
f 160/18/3 157/18/3 156/18/3
f 160/24/3 156/24/3 159/24/3
f 161/21/3 158/21/3 157/21/3
f 161/18/3 157/18/3 160/18/3
f 162/37/3 135/37/3 158/37/3
f 162/21/3 158/21/3 161/21/3
f 163/14/3 160/14/3 159/14/3
f 164/18/3 161/18/3 160/18/3
f 164/14/3 160/14/3 163/14/3
f 165/49/3 162/49/3 161/49/3
f 165/18/3 161/18/3 164/18/3
f 166/37/3 135/37/3 162/37/3
f 166/49/3 162/49/3 165/49/3
f 167/42/3 136/42/3 135/42/3
f 167/37/3 135/37/3 166/37/3
f 168/9/3 137/9/3 136/9/3
f 168/42/3 136/42/3 167/42/3
f 169/22/3 138/22/3 137/22/3
f 169/9/3 137/9/3 168/9/3
f 170/22/3 138/22/3 169/22/3
f 171/29/4 172/29/4 179/29/4
f 172/2/4 173/2/4 180/2/4
f 179/29/4 172/29/4 180/29/4
f 173/49/4 174/49/4 181/49/4
f 180/2/4 173/2/4 181/2/4
f 174/20/4 175/20/4 182/20/4
f 181/49/4 174/49/4 182/49/4
f 179/34/4 180/34/4 183/34/4
f 180/2/4 181/2/4 184/2/4
f 183/34/4 180/34/4 184/34/4
f 181/48/4 182/48/4 185/48/4
f 184/2/4 181/2/4 185/2/4
f 182/20/4 175/20/4 186/20/4
f 185/48/4 182/48/4 186/48/4
f 183/33/4 184/33/4 187/33/4
f 184/2/4 185/2/4 188/2/4
f 187/33/4 184/33/4 188/33/4
f 185/46/4 186/46/4 189/46/4
f 188/2/4 185/2/4 189/2/4
f 186/20/4 175/20/4 190/20/4
f 189/46/4 186/46/4 190/46/4
f 187/32/4 188/32/4 191/32/4
f 188/2/4 189/2/4 192/2/4
f 191/32/4 188/32/4 192/32/4
f 189/35/4 190/35/4 193/35/4
f 192/2/4 189/2/4 193/2/4
f 190/20/4 175/20/4 194/20/4
f 193/35/4 190/35/4 194/35/4
f 191/31/4 192/31/4 195/31/4
f 192/2/4 193/2/4 196/2/4
f 195/31/4 192/31/4 196/31/4
f 193/23/4 194/23/4 197/23/4
f 196/2/4 193/2/4 197/2/4
f 194/20/4 175/20/4 198/20/4
f 197/23/4 194/23/4 198/23/4
f 195/24/4 196/24/4 199/24/4
f 196/2/4 197/2/4 200/2/4
f 199/24/4 196/24/4 200/24/4
f 197/21/4 198/21/4 201/21/4
f 200/2/4 197/2/4 201/2/4
f 198/20/4 175/20/4 202/20/4
f 201/21/4 198/21/4 202/21/4
f 199/19/4 200/19/4 203/19/4
f 200/2/4 201/2/4 204/2/4
f 203/19/4 200/19/4 204/19/4
f 201/12/4 202/12/4 205/12/4
f 204/2/4 201/2/4 205/2/4
f 202/20/4 175/20/4 206/20/4
f 205/12/4 202/12/4 206/12/4
f 175/38/4 176/38/4 207/38/4
f 206/20/4 175/20/4 207/20/4
f 176/2/4 177/2/4 208/2/4
f 207/38/4 176/38/4 208/38/4
f 177/22/4 178/22/4 209/22/4
f 208/2/4 177/2/4 209/2/4
f 209/22/4 178/22/4 210/22/4
f 219/43/5 212/43/5 211/43/5
f 220/34/5 213/34/5 212/34/5
f 220/43/5 212/43/5 219/43/5
f 221/14/5 218/14/5 217/14/5
f 221/24/5 217/24/5 216/24/5
f 222/14/5 218/14/5 221/14/5
f 223/44/5 220/44/5 219/44/5
f 224/34/5 213/34/5 220/34/5
f 224/44/5 220/44/5 223/44/5
f 225/24/5 221/24/5 216/24/5
f 225/16/5 222/16/5 221/16/5
f 226/16/5 222/16/5 225/16/5
f 227/35/5 224/35/5 223/35/5
f 228/34/5 213/34/5 224/34/5
f 228/35/5 224/35/5 227/35/5
f 229/24/5 225/24/5 216/24/5
f 229/13/5 226/13/5 225/13/5
f 230/13/5 226/13/5 229/13/5
f 231/47/5 228/47/5 227/47/5
f 232/34/5 213/34/5 228/34/5
f 232/47/5 228/47/5 231/47/5
f 233/24/5 229/24/5 216/24/5
f 233/19/5 230/19/5 229/19/5
f 234/19/5 230/19/5 233/19/5
f 235/48/5 232/48/5 231/48/5
f 236/34/5 213/34/5 232/34/5
f 236/48/5 232/48/5 235/48/5
f 237/24/5 233/24/5 216/24/5
f 237/13/5 234/13/5 233/13/5
f 238/13/5 234/13/5 237/13/5
f 239/27/5 236/27/5 235/27/5
f 240/34/5 213/34/5 236/34/5
f 240/27/5 236/27/5 239/27/5
f 241/24/5 237/24/5 216/24/5
f 241/19/5 238/19/5 237/19/5
f 242/19/5 238/19/5 241/19/5
f 243/50/5 240/50/5 239/50/5
f 244/34/5 213/34/5 240/34/5
f 244/50/5 240/50/5 243/50/5
f 245/24/5 241/24/5 216/24/5
f 245/13/5 242/13/5 241/13/5
f 246/13/5 242/13/5 245/13/5
f 247/29/5 244/29/5 243/29/5
f 248/34/5 213/34/5 244/34/5
f 248/29/5 244/29/5 247/29/5
f 249/33/5 214/33/5 213/33/5
f 249/34/5 213/34/5 248/34/5
f 250/32/5 215/32/5 214/32/5
f 250/33/5 214/33/5 249/33/5
f 251/31/5 216/31/5 215/31/5
f 251/32/5 215/32/5 250/32/5
f 252/24/5 245/24/5 216/24/5
f 252/31/5 216/31/5 251/31/5
f 253/19/5 246/19/5 245/19/5
f 253/24/5 245/24/5 252/24/5
f 254/19/5 246/19/5 253/19/5
f 255/22/6 256/22/6 257/22/6
f 257/22/6 256/22/6 258/22/6
