# MagicaVoxel @ Ephtracy

# group
o 

# material
mtllib lemon.mtl
usemtl palette

# normals
vn -1 0 0
vn 1 0 0
vn 0 0 1
vn 0 0 -1
vn 0 -1 0
vn 0 1 0

# texcoords
vt 0.0214844 0.5
vt 0.162109 0.5
vt 0.373047 0.5
vt 0.630859 0.5
vt 0.677734 0.5
vt 0.865234 0.5
vt 0.873047 0.5

# verts
v 0.4 1.6 -1
v 0.4 1.6 -1.1
v 0.4 1.8 -1
v 0.4 1.8 -1.1
v 0.4 1.9 -1
v 0.4 1.9 -1.1
v 0.6 1.5 -0.7
v 0.6 1.5 -1.3
v 0.6 1.5 -1.4
v 0.6 1.8 -1
v 0.6 1.8 -1.1
v 0.6 1.9 -1
v 0.6 1.9 -1.1
v 0.6 2.1 -0.7
v 0.6 2.1 -1.3
v 0.6 2.1 -1.4
v 0.7 1.4 -0.7
v 0.7 1.4 -1.4
v 0.7 1.5 -0.7
v 0.7 1.5 -1.3
v 0.7 1.5 -1.4
v 0.7 2.1 -0.7
v 0.7 2.1 -1.3
v 0.7 2.1 -1.4
v 0.7 2.2 -0.7
v 0.7 2.2 -1.4
v 0.8 1 -1
v 0.8 1 -1.1
v 0.8 1.2 -1
v 0.8 1.2 -1.1
v 0.8 1.3 -0.7
v 0.8 1.3 -1
v 0.8 1.3 -1.1
v 0.8 1.3 -1.4
v 0.8 1.4 -0.7
v 0.8 1.4 -1.4
v 0.8 2.2 -0.7
v 0.8 2.2 -1.4
v 0.8 2.3 -0.7
v 0.8 2.3 -1.4
v 0.9 2.3 -0.9
v 0.9 2.3 -1.2
v 0.9 2.5 -0.9
v 0.9 2.5 -1.2
v 1.1 1 -1
v 1.1 1 -1.1
v 1.1 1.2 -1
v 1.1 1.2 -1.1
v 1.1 1.3 -1
v 1.1 1.3 -1.1
v 1.5 1.6 -1
v 1.5 1.6 -1.1
v 1.5 1.8 -1
v 1.5 1.8 -1.1
v 0.5 1.6 -1
v 0.5 1.6 -1.1
v 0.5 1.8 -1
v 0.5 1.8 -1.1
v 0.9 1 -1
v 0.9 1 -1.1
v 0.9 1.2 -1
v 0.9 1.2 -1.1
v 0.9 1.3 -1
v 0.9 1.3 -1.1
v 1.1 2.3 -0.9
v 1.1 2.3 -1.2
v 1.1 2.5 -0.9
v 1.1 2.5 -1.2
v 1.2 1 -1
v 1.2 1 -1.1
v 1.2 1.2 -1
v 1.2 1.2 -1.1
v 1.2 1.3 -0.7
v 1.2 1.3 -1
v 1.2 1.3 -1.1
v 1.2 1.3 -1.4
v 1.2 1.4 -0.7
v 1.2 1.4 -1.4
v 1.2 2.2 -0.7
v 1.2 2.2 -1.4
v 1.2 2.3 -0.7
v 1.2 2.3 -1.4
v 1.3 1.4 -0.7
v 1.3 1.4 -1.4
v 1.3 1.5 -0.7
v 1.3 1.5 -1.4
v 1.3 2.1 -0.7
v 1.3 2.1 -1.4
v 1.3 2.2 -0.7
v 1.3 2.2 -1.4
v 1.4 1.5 -0.7
v 1.4 1.5 -1.4
v 1.4 1.8 -1
v 1.4 1.8 -1.1
v 1.4 1.9 -1
v 1.4 1.9 -1.1
v 1.4 2.1 -0.7
v 1.4 2.1 -1.4
v 1.6 1.6 -1
v 1.6 1.6 -1.1
v 1.6 1.8 -1
v 1.6 1.8 -1.1
v 1.6 1.9 -1
v 1.6 1.9 -1.1
v 0.6 1.5 -0.7
v 0.6 2.1 -0.7
v 0.7 1.4 -0.7
v 0.7 1.5 -0.7
v 0.7 2.1 -0.7
v 0.7 2.2 -0.7
v 0.8 1.3 -0.7
v 0.8 1.4 -0.7
v 0.8 1.6 -0.7
v 0.8 1.7 -0.7
v 0.8 2 -0.7
v 0.8 2.1 -0.7
v 0.8 2.2 -0.7
v 0.8 2.3 -0.7
v 0.9 1.5 -0.7
v 0.9 1.6 -0.7
v 0.9 2 -0.7
v 0.9 2.1 -0.7
v 1.1 1.5 -0.7
v 1.1 1.6 -0.7
v 1.1 2 -0.7
v 1.1 2.1 -0.7
v 1.2 1.3 -0.7
v 1.2 1.4 -0.7
v 1.2 1.6 -0.7
v 1.2 1.7 -0.7
v 1.2 2 -0.7
v 1.2 2.1 -0.7
v 1.2 2.2 -0.7
v 1.2 2.3 -0.7
v 1.3 1.4 -0.7
v 1.3 1.5 -0.7
v 1.3 2.1 -0.7
v 1.3 2.2 -0.7
v 1.4 1.5 -0.7
v 1.4 2.1 -0.7
v 0.9 2.3 -0.9
v 0.9 2.5 -0.9
v 1.1 2.3 -0.9
v 1.1 2.5 -0.9
v 0.4 1.6 -1
v 0.4 1.8 -1
v 0.4 1.9 -1
v 0.5 1.6 -1
v 0.5 1.8 -1
v 0.6 1.8 -1
v 0.6 1.9 -1
v 0.8 1 -1
v 0.8 1.2 -1
v 0.8 1.3 -1
v 0.9 1 -1
v 0.9 1.2 -1
v 0.9 1.3 -1
v 1.1 1 -1
v 1.1 1.2 -1
v 1.1 1.3 -1
v 1.2 1 -1
v 1.2 1.2 -1
v 1.2 1.3 -1
v 1.4 1.8 -1
v 1.4 1.9 -1
v 1.5 1.6 -1
v 1.5 1.8 -1
v 1.6 1.6 -1
v 1.6 1.8 -1
v 1.6 1.9 -1
v 0.4 1.6 -1.1
v 0.4 1.8 -1.1
v 0.4 1.9 -1.1
v 0.5 1.6 -1.1
v 0.5 1.8 -1.1
v 0.6 1.8 -1.1
v 0.6 1.9 -1.1
v 0.8 1 -1.1
v 0.8 1.2 -1.1
v 0.8 1.3 -1.1
v 0.9 1 -1.1
v 0.9 1.2 -1.1
v 0.9 1.3 -1.1
v 1.1 1 -1.1
v 1.1 1.2 -1.1
v 1.1 1.3 -1.1
v 1.2 1 -1.1
v 1.2 1.2 -1.1
v 1.2 1.3 -1.1
v 1.4 1.8 -1.1
v 1.4 1.9 -1.1
v 1.5 1.6 -1.1
v 1.5 1.8 -1.1
v 1.6 1.6 -1.1
v 1.6 1.8 -1.1
v 1.6 1.9 -1.1
v 0.9 2.3 -1.2
v 0.9 2.5 -1.2
v 1.1 2.3 -1.2
v 1.1 2.5 -1.2
v 0.6 1.5 -1.4
v 0.6 2.1 -1.4
v 0.7 1.4 -1.4
v 0.7 1.5 -1.4
v 0.7 2.1 -1.4
v 0.7 2.2 -1.4
v 0.8 1.3 -1.4
v 0.8 1.4 -1.4
v 0.8 2.2 -1.4
v 0.8 2.3 -1.4
v 0.9 1.5 -1.4
v 0.9 1.6 -1.4
v 1.2 1.3 -1.4
v 1.2 1.4 -1.4
v 1.2 2.2 -1.4
v 1.2 2.3 -1.4
v 1.3 1.4 -1.4
v 1.3 1.5 -1.4
v 1.3 1.6 -1.4
v 1.3 2.1 -1.4
v 1.3 2.2 -1.4
v 1.4 1.5 -1.4
v 1.4 2.1 -1.4
v 0.8 1 -1
v 0.9 1 -1
v 1.1 1 -1
v 1.2 1 -1
v 0.8 1 -1.1
v 0.9 1 -1.1
v 1.1 1 -1.1
v 1.2 1 -1.1
v 0.8 1.3 -0.7
v 1.2 1.3 -0.7
v 0.8 1.3 -1
v 0.9 1.3 -1
v 1.1 1.3 -1
v 1.2 1.3 -1
v 0.8 1.3 -1.1
v 0.9 1.3 -1.1
v 1.1 1.3 -1.1
v 1.2 1.3 -1.1
v 0.8 1.3 -1.4
v 1.2 1.3 -1.4
v 0.7 1.4 -0.7
v 0.8 1.4 -0.7
v 1.2 1.4 -0.7
v 1.3 1.4 -0.7
v 0.7 1.4 -1.4
v 0.8 1.4 -1.4
v 1.2 1.4 -1.4
v 1.3 1.4 -1.4
v 0.6 1.5 -0.7
v 0.7 1.5 -0.7
v 1.3 1.5 -0.7
v 1.4 1.5 -0.7
v 0.6 1.5 -1.3
v 0.7 1.5 -1.3
v 0.6 1.5 -1.4
v 0.7 1.5 -1.4
v 1.3 1.5 -1.4
v 1.4 1.5 -1.4
v 0.4 1.6 -1
v 0.5 1.6 -1
v 1.5 1.6 -1
v 1.6 1.6 -1
v 0.4 1.6 -1.1
v 0.5 1.6 -1.1
v 1.5 1.6 -1.1
v 1.6 1.6 -1.1
v 0.5 1.8 -1
v 0.6 1.8 -1
v 1.4 1.8 -1
v 1.5 1.8 -1
v 0.5 1.8 -1.1
v 0.6 1.8 -1.1
v 1.4 1.8 -1.1
v 1.5 1.8 -1.1
v 0.4 1.9 -1
v 0.6 1.9 -1
v 1.4 1.9 -1
v 1.6 1.9 -1
v 0.4 1.9 -1.1
v 0.6 1.9 -1.1
v 1.4 1.9 -1.1
v 1.6 1.9 -1.1
v 0.6 2.1 -0.7
v 0.7 2.1 -0.7
v 1.3 2.1 -0.7
v 1.4 2.1 -0.7
v 0.6 2.1 -1.3
v 0.7 2.1 -1.3
v 0.6 2.1 -1.4
v 0.7 2.1 -1.4
v 1.3 2.1 -1.4
v 1.4 2.1 -1.4
v 0.7 2.2 -0.7
v 0.8 2.2 -0.7
v 1.2 2.2 -0.7
v 1.3 2.2 -0.7
v 0.7 2.2 -1.4
v 0.8 2.2 -1.4
v 1.2 2.2 -1.4
v 1.3 2.2 -1.4
v 0.8 2.3 -0.7
v 1.2 2.3 -0.7
v 0.9 2.3 -0.9
v 1.1 2.3 -0.9
v 0.9 2.3 -1.2
v 1.1 2.3 -1.2
v 0.8 2.3 -1.4
v 1.2 2.3 -1.4
v 0.9 2.5 -0.9
v 1.1 2.5 -0.9
v 0.9 2.5 -1.2
v 1.1 2.5 -1.2

# faces
f 3/3/1 2/3/1 1/3/1
f 4/3/1 2/3/1 3/3/1
f 5/2/1 4/2/1 3/2/1
f 6/2/1 4/2/1 5/2/1
f 10/2/1 8/2/1 7/2/1
f 11/2/1 8/2/1 10/2/1
f 12/2/1 10/2/1 7/2/1
f 13/2/1 8/2/1 11/2/1
f 14/2/1 12/2/1 7/2/1
f 14/2/1 13/2/1 12/2/1
f 15/1/1 9/1/1 8/1/1
f 15/2/1 13/2/1 14/2/1
f 15/2/1 8/2/1 13/2/1
f 16/1/1 9/1/1 15/1/1
f 19/2/1 18/2/1 17/2/1
f 20/2/1 18/2/1 19/2/1
f 21/2/1 18/2/1 20/2/1
f 25/2/1 23/2/1 22/2/1
f 25/2/1 24/2/1 23/2/1
f 26/2/1 24/2/1 25/2/1
f 29/3/1 28/3/1 27/3/1
f 30/3/1 28/3/1 29/3/1
f 32/2/1 30/2/1 29/2/1
f 33/2/1 30/2/1 32/2/1
f 35/2/1 33/2/1 32/2/1
f 35/2/1 34/2/1 33/2/1
f 35/2/1 32/2/1 31/2/1
f 36/2/1 34/2/1 35/2/1
f 39/2/1 38/2/1 37/2/1
f 40/2/1 38/2/1 39/2/1
f 43/5/1 42/5/1 41/5/1
f 44/5/1 42/5/1 43/5/1
f 47/3/1 46/3/1 45/3/1
f 48/3/1 46/3/1 47/3/1
f 49/2/1 48/2/1 47/2/1
f 50/2/1 48/2/1 49/2/1
f 53/3/1 52/3/1 51/3/1
f 54/3/1 52/3/1 53/3/1
f 55/3/2 56/3/2 57/3/2
f 57/3/2 56/3/2 58/3/2
f 59/3/2 60/3/2 61/3/2
f 61/3/2 60/3/2 62/3/2
f 61/2/2 62/2/2 63/2/2
f 63/2/2 62/2/2 64/2/2
f 65/5/2 66/5/2 67/5/2
f 67/5/2 66/5/2 68/5/2
f 69/3/2 70/3/2 71/3/2
f 71/3/2 70/3/2 72/3/2
f 71/2/2 72/2/2 74/2/2
f 74/2/2 72/2/2 75/2/2
f 74/2/2 75/2/2 77/2/2
f 75/2/2 76/2/2 77/2/2
f 73/2/2 74/2/2 77/2/2
f 77/2/2 76/2/2 78/2/2
f 79/2/2 80/2/2 81/2/2
f 81/2/2 80/2/2 82/2/2
f 83/2/2 84/2/2 85/2/2
f 85/2/2 84/2/2 86/2/2
f 87/2/2 88/2/2 89/2/2
f 89/2/2 88/2/2 90/2/2
f 91/2/2 92/2/2 93/2/2
f 93/2/2 92/2/2 94/2/2
f 91/2/2 93/2/2 95/2/2
f 94/2/2 92/2/2 96/2/2
f 91/2/2 95/2/2 97/2/2
f 95/2/2 96/2/2 97/2/2
f 96/2/2 92/2/2 98/2/2
f 97/2/2 96/2/2 98/2/2
f 99/3/2 100/3/2 101/3/2
f 101/3/2 100/3/2 102/3/2
f 101/2/2 102/2/2 103/2/2
f 103/2/2 102/2/2 104/2/2
f 108/2/3 106/2/3 105/2/3
f 109/2/3 106/2/3 108/2/3
f 112/2/3 108/2/3 107/2/3
f 112/2/3 110/2/3 109/2/3
f 112/2/3 109/2/3 108/2/3
f 113/2/3 110/2/3 112/2/3
f 114/2/3 110/2/3 113/2/3
f 115/2/3 110/2/3 114/2/3
f 116/2/3 110/2/3 115/2/3
f 117/2/3 110/2/3 116/2/3
f 119/2/3 112/2/3 111/2/3
f 119/2/3 113/2/3 112/2/3
f 120/7/3 114/7/3 113/7/3
f 120/2/3 113/2/3 119/2/3
f 121/2/3 115/2/3 114/2/3
f 121/7/3 116/7/3 115/7/3
f 122/2/3 118/2/3 117/2/3
f 122/7/3 116/7/3 121/7/3
f 122/2/3 117/2/3 116/2/3
f 123/7/3 120/7/3 119/7/3
f 123/2/3 119/2/3 111/2/3
f 124/7/3 114/7/3 120/7/3
f 124/7/3 120/7/3 123/7/3
f 125/2/3 121/2/3 114/2/3
f 125/2/3 122/2/3 121/2/3
f 126/2/3 118/2/3 122/2/3
f 126/2/3 122/2/3 125/2/3
f 127/2/3 124/2/3 123/2/3
f 127/2/3 123/2/3 111/2/3
f 128/2/3 124/2/3 127/2/3
f 129/7/3 114/7/3 124/7/3
f 129/2/3 124/2/3 128/2/3
f 130/2/3 125/2/3 114/2/3
f 130/7/3 114/7/3 129/7/3
f 131/7/3 126/7/3 125/7/3
f 131/2/3 125/2/3 130/2/3
f 132/2/3 118/2/3 126/2/3
f 132/7/3 126/7/3 131/7/3
f 133/2/3 118/2/3 132/2/3
f 134/2/3 118/2/3 133/2/3
f 135/2/3 129/2/3 128/2/3
f 135/2/3 133/2/3 132/2/3
f 135/2/3 132/2/3 131/2/3
f 135/2/3 131/2/3 130/2/3
f 135/2/3 130/2/3 129/2/3
f 136/2/3 133/2/3 135/2/3
f 137/2/3 133/2/3 136/2/3
f 138/2/3 133/2/3 137/2/3
f 139/2/3 137/2/3 136/2/3
f 140/2/3 137/2/3 139/2/3
f 143/5/3 142/5/3 141/5/3
f 144/5/3 142/5/3 143/5/3
f 148/3/3 146/3/3 145/3/3
f 149/2/3 147/2/3 146/2/3
f 149/3/3 146/3/3 148/3/3
f 150/2/3 147/2/3 149/2/3
f 151/2/3 147/2/3 150/2/3
f 155/3/3 153/3/3 152/3/3
f 156/2/3 154/2/3 153/2/3
f 156/3/3 153/3/3 155/3/3
f 157/2/3 154/2/3 156/2/3
f 161/3/3 159/3/3 158/3/3
f 162/2/3 160/2/3 159/2/3
f 162/3/3 159/3/3 161/3/3
f 163/2/3 160/2/3 162/2/3
f 167/2/3 165/2/3 164/2/3
f 168/3/3 167/3/3 166/3/3
f 169/2/3 165/2/3 167/2/3
f 169/3/3 167/3/3 168/3/3
f 170/2/3 165/2/3 169/2/3
f 171/3/4 172/3/4 174/3/4
f 172/2/4 173/2/4 175/2/4
f 174/3/4 172/3/4 175/3/4
f 175/2/4 173/2/4 176/2/4
f 176/2/4 173/2/4 177/2/4
f 178/3/4 179/3/4 181/3/4
f 179/2/4 180/2/4 182/2/4
f 181/3/4 179/3/4 182/3/4
f 182/2/4 180/2/4 183/2/4
f 184/3/4 185/3/4 187/3/4
f 185/2/4 186/2/4 188/2/4
f 187/3/4 185/3/4 188/3/4
f 188/2/4 186/2/4 189/2/4
f 190/2/4 191/2/4 193/2/4
f 192/3/4 193/3/4 194/3/4
f 193/2/4 191/2/4 195/2/4
f 194/3/4 193/3/4 195/3/4
f 195/2/4 191/2/4 196/2/4
f 197/5/4 198/5/4 199/5/4
f 199/5/4 198/5/4 200/5/4
f 201/1/4 202/1/4 204/1/4
f 204/1/4 202/1/4 205/1/4
f 203/2/4 204/2/4 208/2/4
f 205/2/4 206/2/4 208/2/4
f 204/2/4 205/2/4 208/2/4
f 208/2/4 206/2/4 209/2/4
f 207/2/4 208/2/4 211/2/4
f 209/2/4 210/2/4 211/2/4
f 208/2/4 209/2/4 211/2/4
f 211/2/4 210/2/4 212/2/4
f 207/2/4 211/2/4 213/2/4
f 213/2/4 211/2/4 214/2/4
f 212/2/4 210/2/4 215/2/4
f 215/2/4 210/2/4 216/2/4
f 214/2/4 211/2/4 217/2/4
f 211/1/4 212/1/4 218/1/4
f 217/2/4 211/2/4 218/2/4
f 212/2/4 215/2/4 219/2/4
f 218/1/4 212/1/4 219/1/4
f 219/2/4 215/2/4 220/2/4
f 220/2/4 215/2/4 221/2/4
f 218/2/4 219/2/4 222/2/4
f 219/2/4 220/2/4 222/2/4
f 222/2/4 220/2/4 223/2/4
f 228/3/5 225/3/5 224/3/5
f 229/3/5 225/3/5 228/3/5
f 230/3/5 227/3/5 226/3/5
f 231/3/5 227/3/5 230/3/5
f 234/2/5 233/2/5 232/2/5
f 235/2/5 233/2/5 234/2/5
f 236/2/5 233/2/5 235/2/5
f 237/2/5 233/2/5 236/2/5
f 239/2/5 236/2/5 235/2/5
f 240/2/5 236/2/5 239/2/5
f 242/2/5 239/2/5 238/2/5
f 242/2/5 241/2/5 240/2/5
f 242/2/5 240/2/5 239/2/5
f 243/2/5 241/2/5 242/2/5
f 248/2/5 245/2/5 244/2/5
f 249/2/5 245/2/5 248/2/5
f 250/2/5 247/2/5 246/2/5
f 251/2/5 247/2/5 250/2/5
f 256/2/5 253/2/5 252/2/5
f 257/2/5 253/2/5 256/2/5
f 258/1/5 257/1/5 256/1/5
f 259/1/5 257/1/5 258/1/5
f 260/2/5 255/2/5 254/2/5
f 261/2/5 255/2/5 260/2/5
f 266/3/5 263/3/5 262/3/5
f 267/3/5 263/3/5 266/3/5
f 268/3/5 265/3/5 264/3/5
f 269/3/5 265/3/5 268/3/5
f 274/2/5 271/2/5 270/2/5
f 275/2/5 271/2/5 274/2/5
f 276/2/5 273/2/5 272/2/5
f 277/2/5 273/2/5 276/2/5
f 278/2/6 279/2/6 282/2/6
f 282/2/6 279/2/6 283/2/6
f 280/2/6 281/2/6 284/2/6
f 284/2/6 281/2/6 285/2/6
f 286/2/6 287/2/6 290/2/6
f 290/2/6 287/2/6 291/2/6
f 290/1/6 291/1/6 292/1/6
f 292/1/6 291/1/6 293/1/6
f 288/2/6 289/2/6 294/2/6
f 294/2/6 289/2/6 295/2/6
f 296/2/6 297/2/6 300/2/6
f 300/2/6 297/2/6 301/2/6
f 298/2/6 299/2/6 302/2/6
f 302/2/6 299/2/6 303/2/6
f 304/2/6 305/2/6 306/2/6
f 306/2/6 305/2/6 307/2/6
f 304/2/6 306/2/6 308/2/6
f 307/2/6 305/2/6 309/2/6
f 304/2/6 308/2/6 310/2/6
f 308/2/6 309/2/6 310/2/6
f 309/2/6 305/2/6 311/2/6
f 310/2/6 309/2/6 311/2/6
f 312/5/6 313/5/6 314/5/6
f 314/5/6 313/5/6 315/5/6
