# MagicaVoxel @ Ephtracy

# group
o 

# material
mtllib lion.mtl
usemtl palette

# normals
vn -1 0 0
vn 1 0 0
vn 0 0 1
vn 0 0 -1
vn 0 -1 0
vn 0 1 0

# texcoords
vt 0.0332031 0.5
vt 0.0644531 0.5
vt 0.373047 0.5
vt 0.876953 0.5

# verts
v 1.7 2.4 -1.3
v 1.7 2.4 -1.4
v 1.7 2.9 -1.3
v 1.7 2.9 -1.4
v 1.8 2 -1.3
v 1.8 2 -1.4
v 1.8 2 -1.6
v 1.8 2 -1.9
v 1.8 2 -2
v 1.8 2 -2.2
v 1.8 2.1 -1.3
v 1.8 2.1 -1.4
v 1.8 2.1 -1.9
v 1.8 2.1 -2
v 1.8 2.3 -1.3
v 1.8 2.3 -1.4
v 1.8 2.3 -1.6
v 1.8 2.3 -2
v 1.8 2.4 -1.3
v 1.8 2.4 -1.4
v 1.8 2.5 -1.2
v 1.8 2.5 -1.3
v 1.8 2.7 -1.1
v 1.8 2.7 -1.2
v 1.8 2.8 -1.2
v 1.8 2.8 -1.3
v 1.8 2.8 -1.4
v 1.8 2.8 -2.2
v 1.8 2.9 -1.1
v 1.8 2.9 -1.2
v 1.8 2.9 -1.3
v 1.8 2.9 -1.4
v 1.8 3 -1.3
v 1.8 3 -1.4
v 1.9 2.2 -1.3
v 1.9 2.2 -1.4
v 1.9 2.3 -1.2
v 1.9 2.3 -1.3
v 1.9 2.3 -1.4
v 1.9 2.4 -1
v 1.9 2.4 -1.2
v 1.9 2.5 -1.2
v 1.9 2.5 -1.3
v 1.9 2.7 -1.1
v 1.9 2.7 -1.2
v 1.9 2.8 -1
v 1.9 2.8 -1.1
v 1.9 2.8 -1.2
v 1.9 2.8 -1.3
v 1.9 2.9 -1.2
v 1.9 2.9 -1.3
v 1.9 3 -1.3
v 1.9 3 -1.4
v 1.9 3.1 -1.3
v 1.9 3.1 -1.4
v 2 2.4 -0.8
v 2 2.4 -1
v 2 2.6 -0.8
v 2 2.6 -0.9
v 2 2.6 -1
v 2 2.7 -0.9
v 2 2.7 -1
v 2 2.9 -1.2
v 2 2.9 -1.3
v 2 3 -1.2
v 2 3 -1.3
v 2.1 2.2 -2.4
v 2.1 2.2 -2.6
v 2.1 2.5 -2.2
v 2.1 2.5 -2.4
v 2.1 2.7 -2.2
v 2.1 2.7 -2.6
v 2.2 2.6 -0.9
v 2.2 2.6 -1
v 2.2 2.7 -0.9
v 2.2 2.7 -1
v 2.3 2.8 -1.1
v 2.3 2.8 -1.2
v 2.3 2.9 -1.1
v 2.3 2.9 -1.2
v 2.4 2 -1.3
v 2.4 2 -1.4
v 2.4 2 -1.6
v 2.4 2 -1.9
v 2.4 2 -2
v 2.4 2 -2.2
v 2.4 2.1 -1.3
v 2.4 2.1 -1.4
v 2.4 2.1 -1.9
v 2.4 2.1 -2
v 2.4 2.2 -1.4
v 2.4 2.3 -1.4
v 2.4 2.3 -1.6
v 2.4 2.3 -2
v 2.4 2.3 -2.2
v 1.9 2 -1.3
v 1.9 2 -1.4
v 1.9 2 -1.6
v 1.9 2 -1.9
v 1.9 2 -2
v 1.9 2 -2.2
v 1.9 2.1 -1.3
v 1.9 2.1 -1.4
v 1.9 2.1 -1.9
v 1.9 2.1 -2
v 1.9 2.2 -1.4
v 1.9 2.3 -1.4
v 1.9 2.3 -1.6
v 1.9 2.3 -2
v 1.9 2.3 -2.2
v 2 2.8 -1.1
v 2 2.8 -1.2
v 2 2.9 -1.1
v 2 2.9 -1.2
v 2.1 2.6 -0.9
v 2.1 2.6 -1
v 2.1 2.7 -0.9
v 2.1 2.7 -1
v 2.2 2.2 -2.4
v 2.2 2.2 -2.6
v 2.2 2.5 -2.2
v 2.2 2.5 -2.4
v 2.2 2.7 -2.2
v 2.2 2.7 -2.6
v 2.3 2.4 -0.8
v 2.3 2.4 -1
v 2.3 2.6 -0.8
v 2.3 2.6 -0.9
v 2.3 2.6 -1
v 2.3 2.7 -0.9
v 2.3 2.7 -1
v 2.3 2.9 -1.2
v 2.3 2.9 -1.3
v 2.3 3 -1.2
v 2.3 3 -1.3
v 2.4 2.2 -1.3
v 2.4 2.2 -1.4
v 2.4 2.3 -1.2
v 2.4 2.3 -1.3
v 2.4 2.3 -1.4
v 2.4 2.4 -1
v 2.4 2.4 -1.2
v 2.4 2.5 -1.2
v 2.4 2.5 -1.3
v 2.4 2.7 -1.1
v 2.4 2.7 -1.2
v 2.4 2.8 -1
v 2.4 2.8 -1.1
v 2.4 2.8 -1.2
v 2.4 2.8 -1.3
v 2.4 2.9 -1.2
v 2.4 2.9 -1.3
v 2.4 3 -1.3
v 2.4 3 -1.4
v 2.4 3.1 -1.3
v 2.4 3.1 -1.4
v 2.5 2 -1.3
v 2.5 2 -1.4
v 2.5 2 -1.6
v 2.5 2 -1.9
v 2.5 2 -2
v 2.5 2 -2.2
v 2.5 2.1 -1.3
v 2.5 2.1 -1.4
v 2.5 2.1 -1.9
v 2.5 2.1 -2
v 2.5 2.3 -1.3
v 2.5 2.3 -1.4
v 2.5 2.3 -1.6
v 2.5 2.3 -2
v 2.5 2.4 -1.3
v 2.5 2.4 -1.4
v 2.5 2.5 -1.2
v 2.5 2.5 -1.3
v 2.5 2.7 -1.1
v 2.5 2.7 -1.2
v 2.5 2.8 -1.2
v 2.5 2.8 -1.3
v 2.5 2.8 -1.4
v 2.5 2.8 -2.2
v 2.5 2.9 -1.1
v 2.5 2.9 -1.2
v 2.5 2.9 -1.3
v 2.5 2.9 -1.4
v 2.5 3 -1.3
v 2.5 3 -1.4
v 2.6 2.4 -1.3
v 2.6 2.4 -1.4
v 2.6 2.9 -1.3
v 2.6 2.9 -1.4
v 2 2.4 -0.8
v 2 2.6 -0.8
v 2.1 2.4 -0.8
v 2.1 2.5 -0.8
v 2.2 2.4 -0.8
v 2.2 2.5 -0.8
v 2.3 2.4 -0.8
v 2.3 2.6 -0.8
v 2 2.6 -0.9
v 2 2.7 -0.9
v 2.1 2.6 -0.9
v 2.1 2.7 -0.9
v 2.2 2.6 -0.9
v 2.2 2.7 -0.9
v 2.3 2.6 -0.9
v 2.3 2.7 -0.9
v 1.9 2.4 -1
v 1.9 2.8 -1
v 2 2.4 -1
v 2 2.6 -1
v 2 2.7 -1
v 2.1 2.6 -1
v 2.1 2.7 -1
v 2.2 2.6 -1
v 2.2 2.7 -1
v 2.3 2.4 -1
v 2.3 2.6 -1
v 2.3 2.7 -1
v 2.4 2.4 -1
v 2.4 2.8 -1
v 1.8 2.7 -1.1
v 1.8 2.9 -1.1
v 1.9 2.7 -1.1
v 1.9 2.8 -1.1
v 2 2.8 -1.1
v 2 2.9 -1.1
v 2.3 2.8 -1.1
v 2.3 2.9 -1.1
v 2.4 2.7 -1.1
v 2.4 2.8 -1.1
v 2.5 2.7 -1.1
v 2.5 2.9 -1.1
v 1.8 2.5 -1.2
v 1.8 2.7 -1.2
v 1.9 2.3 -1.2
v 1.9 2.4 -1.2
v 1.9 2.5 -1.2
v 1.9 2.7 -1.2
v 2 2.8 -1.2
v 2 2.9 -1.2
v 2 3 -1.2
v 2.3 2.8 -1.2
v 2.3 2.9 -1.2
v 2.3 3 -1.2
v 2.4 2.3 -1.2
v 2.4 2.4 -1.2
v 2.4 2.5 -1.2
v 2.4 2.7 -1.2
v 2.5 2.5 -1.2
v 2.5 2.7 -1.2
v 1.7 2.4 -1.3
v 1.7 2.9 -1.3
v 1.8 2 -1.3
v 1.8 2.1 -1.3
v 1.8 2.3 -1.3
v 1.8 2.4 -1.3
v 1.8 2.5 -1.3
v 1.8 2.8 -1.3
v 1.8 2.9 -1.3
v 1.8 3 -1.3
v 1.9 2 -1.3
v 1.9 2.1 -1.3
v 1.9 2.2 -1.3
v 1.9 2.3 -1.3
v 1.9 2.5 -1.3
v 1.9 2.8 -1.3
v 1.9 2.9 -1.3
v 1.9 3 -1.3
v 1.9 3.1 -1.3
v 2 2.9 -1.3
v 2 3 -1.3
v 2.3 2.9 -1.3
v 2.3 3 -1.3
v 2.4 2 -1.3
v 2.4 2.1 -1.3
v 2.4 2.2 -1.3
v 2.4 2.3 -1.3
v 2.4 2.5 -1.3
v 2.4 2.8 -1.3
v 2.4 2.9 -1.3
v 2.4 3 -1.3
v 2.4 3.1 -1.3
v 2.5 2 -1.3
v 2.5 2.1 -1.3
v 2.5 2.3 -1.3
v 2.5 2.4 -1.3
v 2.5 2.5 -1.3
v 2.5 2.8 -1.3
v 2.5 2.9 -1.3
v 2.5 3 -1.3
v 2.6 2.4 -1.3
v 2.6 2.9 -1.3
v 1.8 2.1 -1.4
v 1.8 2.3 -1.4
v 1.9 2.1 -1.4
v 1.9 2.2 -1.4
v 1.9 2.3 -1.4
v 2.4 2.1 -1.4
v 2.4 2.2 -1.4
v 2.4 2.3 -1.4
v 2.5 2.1 -1.4
v 2.5 2.3 -1.4
v 1.8 2 -1.9
v 1.8 2.1 -1.9
v 1.9 2 -1.9
v 1.9 2.1 -1.9
v 2.4 2 -1.9
v 2.4 2.1 -1.9
v 2.5 2 -1.9
v 2.5 2.1 -1.9
v 1.8 2.1 -2
v 1.8 2.3 -2
v 1.9 2.1 -2
v 1.9 2.3 -2
v 2.4 2.1 -2
v 2.4 2.3 -2
v 2.5 2.1 -2
v 2.5 2.3 -2
v 2.1 2.2 -2.4
v 2.1 2.5 -2.4
v 2.2 2.2 -2.4
v 2.2 2.5 -2.4
v 1.8 2.8 -1.2
v 1.8 2.9 -1.2
v 1.9 2.8 -1.2
v 1.9 2.9 -1.2
v 2.4 2.8 -1.2
v 2.4 2.9 -1.2
v 2.5 2.8 -1.2
v 2.5 2.9 -1.2
v 1.7 2.4 -1.4
v 1.7 2.9 -1.4
v 1.8 2.4 -1.4
v 1.8 2.8 -1.4
v 1.8 2.9 -1.4
v 1.8 3 -1.4
v 1.9 2.2 -1.4
v 1.9 2.3 -1.4
v 1.9 3 -1.4
v 1.9 3.1 -1.4
v 2.4 2.2 -1.4
v 2.4 2.3 -1.4
v 2.4 3 -1.4
v 2.4 3.1 -1.4
v 2.5 2.4 -1.4
v 2.5 2.8 -1.4
v 2.5 2.9 -1.4
v 2.5 3 -1.4
v 2.6 2.4 -1.4
v 2.6 2.9 -1.4
v 1.8 2 -1.6
v 1.8 2.3 -1.6
v 1.9 2 -1.6
v 1.9 2.3 -1.6
v 2.4 2 -1.6
v 2.4 2.3 -1.6
v 2.5 2 -1.6
v 2.5 2.3 -1.6
v 1.8 2 -2.2
v 1.8 2.8 -2.2
v 1.9 2 -2.2
v 1.9 2.3 -2.2
v 2.1 2.5 -2.2
v 2.1 2.7 -2.2
v 2.2 2.5 -2.2
v 2.2 2.7 -2.2
v 2.4 2 -2.2
v 2.4 2.3 -2.2
v 2.5 2 -2.2
v 2.5 2.8 -2.2
v 2.1 2.2 -2.6
v 2.1 2.7 -2.6
v 2.2 2.2 -2.6
v 2.2 2.7 -2.6
v 1.8 2 -1.3
v 1.9 2 -1.3
v 2.4 2 -1.3
v 2.5 2 -1.3
v 1.8 2 -1.4
v 1.9 2 -1.4
v 2.4 2 -1.4
v 2.5 2 -1.4
v 1.8 2 -1.6
v 1.9 2 -1.6
v 2.4 2 -1.6
v 2.5 2 -1.6
v 1.8 2 -1.9
v 1.9 2 -1.9
v 2.4 2 -1.9
v 2.5 2 -1.9
v 1.8 2 -2
v 1.9 2 -2
v 2.4 2 -2
v 2.5 2 -2
v 1.8 2 -2.2
v 1.9 2 -2.2
v 2.4 2 -2.2
v 2.5 2 -2.2
v 1.9 2.2 -1.3
v 2.4 2.2 -1.3
v 1.9 2.2 -1.4
v 2.4 2.2 -1.4
v 2.1 2.2 -2.4
v 2.2 2.2 -2.4
v 2.1 2.2 -2.6
v 2.2 2.2 -2.6
v 1.9 2.3 -1.2
v 2.4 2.3 -1.2
v 1.8 2.3 -1.3
v 1.9 2.3 -1.3
v 2.4 2.3 -1.3
v 2.5 2.3 -1.3
v 1.8 2.3 -1.4
v 1.9 2.3 -1.4
v 2.4 2.3 -1.4
v 2.5 2.3 -1.4
v 1.8 2.3 -1.6
v 1.9 2.3 -1.6
v 2.4 2.3 -1.6
v 2.5 2.3 -1.6
v 1.8 2.3 -2
v 1.9 2.3 -2
v 2.4 2.3 -2
v 2.5 2.3 -2
v 1.9 2.3 -2.2
v 2.4 2.3 -2.2
v 2 2.4 -0.8
v 2.1 2.4 -0.8
v 2.2 2.4 -0.8
v 2.3 2.4 -0.8
v 2.1 2.4 -0.9
v 2.2 2.4 -0.9
v 1.9 2.4 -1
v 2 2.4 -1
v 2.3 2.4 -1
v 2.4 2.4 -1
v 1.9 2.4 -1.2
v 2.4 2.4 -1.2
v 1.7 2.4 -1.3
v 1.8 2.4 -1.3
v 2.5 2.4 -1.3
v 2.6 2.4 -1.3
v 1.7 2.4 -1.4
v 1.8 2.4 -1.4
v 2.5 2.4 -1.4
v 2.6 2.4 -1.4
v 1.8 2.5 -1.2
v 1.9 2.5 -1.2
v 2.4 2.5 -1.2
v 2.5 2.5 -1.2
v 1.8 2.5 -1.3
v 1.9 2.5 -1.3
v 2.4 2.5 -1.3
v 2.5 2.5 -1.3
v 2.1 2.5 -2.2
v 2.2 2.5 -2.2
v 2.1 2.5 -2.4
v 2.2 2.5 -2.4
v 1.8 2.7 -1.1
v 1.9 2.7 -1.1
v 2.4 2.7 -1.1
v 2.5 2.7 -1.1
v 1.8 2.7 -1.2
v 1.9 2.7 -1.2
v 2.4 2.7 -1.2
v 2.5 2.7 -1.2
v 1.8 2.1 -1.3
v 1.9 2.1 -1.3
v 2.4 2.1 -1.3
v 2.5 2.1 -1.3
v 1.8 2.1 -1.4
v 1.9 2.1 -1.4
v 2.4 2.1 -1.4
v 2.5 2.1 -1.4
v 1.8 2.1 -1.9
v 1.9 2.1 -1.9
v 2.4 2.1 -1.9
v 2.5 2.1 -1.9
v 1.8 2.1 -2
v 1.9 2.1 -2
v 2.4 2.1 -2
v 2.5 2.1 -2
v 2 2.6 -0.8
v 2.3 2.6 -0.8
v 2 2.6 -0.9
v 2.1 2.6 -0.9
v 2.2 2.6 -0.9
v 2.3 2.6 -0.9
v 2.1 2.6 -1
v 2.2 2.6 -1
v 2 2.7 -0.9
v 2.1 2.7 -0.9
v 2.2 2.7 -0.9
v 2.3 2.7 -0.9
v 2 2.7 -1
v 2.1 2.7 -1
v 2.2 2.7 -1
v 2.3 2.7 -1
v 2.1 2.7 -2.2
v 2.2 2.7 -2.2
v 2.1 2.7 -2.6
v 2.2 2.7 -2.6
v 1.9 2.8 -1
v 2.4 2.8 -1
v 1.9 2.8 -1.1
v 2 2.8 -1.1
v 2.3 2.8 -1.1
v 2.4 2.8 -1.1
v 1.8 2.8 -1.2
v 1.9 2.8 -1.2
v 2 2.8 -1.2
v 2.3 2.8 -1.2
v 2.4 2.8 -1.2
v 2.5 2.8 -1.2
v 1.8 2.8 -1.3
v 1.9 2.8 -1.3
v 2.4 2.8 -1.3
v 2.5 2.8 -1.3
v 1.8 2.8 -1.4
v 2.5 2.8 -1.4
v 1.8 2.8 -2.2
v 2.5 2.8 -2.2
v 1.8 2.9 -1.1
v 2 2.9 -1.1
v 2.3 2.9 -1.1
v 2.5 2.9 -1.1
v 1.8 2.9 -1.2
v 1.9 2.9 -1.2
v 2 2.9 -1.2
v 2.3 2.9 -1.2
v 2.4 2.9 -1.2
v 2.5 2.9 -1.2
v 1.7 2.9 -1.3
v 1.8 2.9 -1.3
v 1.9 2.9 -1.3
v 2 2.9 -1.3
v 2.3 2.9 -1.3
v 2.4 2.9 -1.3
v 2.5 2.9 -1.3
v 2.6 2.9 -1.3
v 1.7 2.9 -1.4
v 1.8 2.9 -1.4
v 2.5 2.9 -1.4
v 2.6 2.9 -1.4
v 2 3 -1.2
v 2.3 3 -1.2
v 1.8 3 -1.3
v 1.9 3 -1.3
v 2 3 -1.3
v 2.3 3 -1.3
v 2.4 3 -1.3
v 2.5 3 -1.3
v 1.8 3 -1.4
v 1.9 3 -1.4
v 2.4 3 -1.4
v 2.5 3 -1.4
v 1.9 3.1 -1.3
v 2.4 3.1 -1.3
v 1.9 3.1 -1.4
v 2.4 3.1 -1.4

# faces
f 3/3/1 2/3/1 1/3/1
f 4/3/1 2/3/1 3/3/1
f 11/1/1 6/1/1 5/1/1
f 12/2/1 7/2/1 6/2/1
f 12/1/1 6/1/1 11/1/1
f 13/1/1 9/1/1 8/1/1
f 14/2/1 10/2/1 9/2/1
f 14/1/1 9/1/1 13/1/1
f 16/2/1 7/2/1 12/2/1
f 17/2/1 7/2/1 16/2/1
f 18/2/1 10/2/1 14/2/1
f 19/3/1 16/3/1 15/3/1
f 20/2/1 17/2/1 16/2/1
f 20/3/1 16/3/1 19/3/1
f 20/2/1 18/2/1 17/2/1
f 24/3/1 22/3/1 21/3/1
f 25/3/1 22/3/1 24/3/1
f 25/2/1 24/2/1 23/2/1
f 26/3/1 22/3/1 25/3/1
f 27/2/1 18/2/1 20/2/1
f 28/2/1 10/2/1 18/2/1
f 28/2/1 18/2/1 27/2/1
f 29/2/1 25/2/1 23/2/1
f 30/2/1 25/2/1 29/2/1
f 33/3/1 32/3/1 31/3/1
f 34/3/1 32/3/1 33/3/1
f 38/3/1 36/3/1 35/3/1
f 39/3/1 36/3/1 38/3/1
f 41/3/1 38/3/1 37/3/1
f 42/3/1 38/3/1 41/3/1
f 42/2/1 41/2/1 40/2/1
f 43/3/1 38/3/1 42/3/1
f 44/2/1 42/2/1 40/2/1
f 45/2/1 42/2/1 44/2/1
f 46/2/1 44/2/1 40/2/1
f 47/2/1 44/2/1 46/2/1
f 50/3/1 49/3/1 48/3/1
f 51/3/1 49/3/1 50/3/1
f 54/3/1 53/3/1 52/3/1
f 55/3/1 53/3/1 54/3/1
f 58/2/1 57/2/1 56/2/1
f 59/2/1 57/2/1 58/2/1
f 60/2/1 57/2/1 59/2/1
f 61/4/1 60/4/1 59/4/1
f 62/4/1 60/4/1 61/4/1
f 65/3/1 64/3/1 63/3/1
f 66/3/1 64/3/1 65/3/1
f 70/2/1 68/2/1 67/2/1
f 71/2/1 70/2/1 69/2/1
f 72/2/1 68/2/1 70/2/1
f 72/2/1 70/2/1 71/2/1
f 75/4/1 74/4/1 73/4/1
f 76/4/1 74/4/1 75/4/1
f 79/2/1 78/2/1 77/2/1
f 80/2/1 78/2/1 79/2/1
f 87/1/1 82/1/1 81/1/1
f 88/2/1 83/2/1 82/2/1
f 88/1/1 82/1/1 87/1/1
f 89/1/1 85/1/1 84/1/1
f 90/2/1 86/2/1 85/2/1
f 90/1/1 85/1/1 89/1/1
f 91/2/1 83/2/1 88/2/1
f 92/2/1 83/2/1 91/2/1
f 93/2/1 83/2/1 92/2/1
f 94/2/1 86/2/1 90/2/1
f 95/2/1 86/2/1 94/2/1
f 96/1/2 97/1/2 102/1/2
f 97/2/2 98/2/2 103/2/2
f 102/1/2 97/1/2 103/1/2
f 99/1/2 100/1/2 104/1/2
f 100/2/2 101/2/2 105/2/2
f 104/1/2 100/1/2 105/1/2
f 103/2/2 98/2/2 106/2/2
f 106/2/2 98/2/2 107/2/2
f 107/2/2 98/2/2 108/2/2
f 105/2/2 101/2/2 109/2/2
f 109/2/2 101/2/2 110/2/2
f 111/2/2 112/2/2 113/2/2
f 113/2/2 112/2/2 114/2/2
f 115/4/2 116/4/2 117/4/2
f 117/4/2 116/4/2 118/4/2
f 119/2/2 120/2/2 122/2/2
f 121/2/2 122/2/2 123/2/2
f 122/2/2 120/2/2 124/2/2
f 123/2/2 122/2/2 124/2/2
f 125/2/2 126/2/2 127/2/2
f 127/2/2 126/2/2 128/2/2
f 128/2/2 126/2/2 129/2/2
f 128/4/2 129/4/2 130/4/2
f 130/4/2 129/4/2 131/4/2
f 132/3/2 133/3/2 134/3/2
f 134/3/2 133/3/2 135/3/2
f 136/3/2 137/3/2 139/3/2
f 139/3/2 137/3/2 140/3/2
f 138/3/2 139/3/2 142/3/2
f 142/3/2 139/3/2 143/3/2
f 141/2/2 142/2/2 143/2/2
f 143/3/2 139/3/2 144/3/2
f 141/2/2 143/2/2 145/2/2
f 145/2/2 143/2/2 146/2/2
f 141/2/2 145/2/2 147/2/2
f 147/2/2 145/2/2 148/2/2
f 149/3/2 150/3/2 151/3/2
f 151/3/2 150/3/2 152/3/2
f 153/3/2 154/3/2 155/3/2
f 155/3/2 154/3/2 156/3/2
f 157/1/2 158/1/2 163/1/2
f 158/2/2 159/2/2 164/2/2
f 163/1/2 158/1/2 164/1/2
f 160/1/2 161/1/2 165/1/2
f 161/2/2 162/2/2 166/2/2
f 165/1/2 161/1/2 166/1/2
f 164/2/2 159/2/2 168/2/2
f 168/2/2 159/2/2 169/2/2
f 166/2/2 162/2/2 170/2/2
f 167/3/2 168/3/2 171/3/2
f 168/2/2 169/2/2 172/2/2
f 171/3/2 168/3/2 172/3/2
f 169/2/2 170/2/2 172/2/2
f 173/3/2 174/3/2 176/3/2
f 176/3/2 174/3/2 177/3/2
f 175/2/2 176/2/2 177/2/2
f 177/3/2 174/3/2 178/3/2
f 172/2/2 170/2/2 179/2/2
f 170/2/2 162/2/2 180/2/2
f 179/2/2 170/2/2 180/2/2
f 175/2/2 177/2/2 181/2/2
f 181/2/2 177/2/2 182/2/2
f 183/3/2 184/3/2 185/3/2
f 185/3/2 184/3/2 186/3/2
f 187/3/2 188/3/2 189/3/2
f 189/3/2 188/3/2 190/3/2
f 193/2/3 192/2/3 191/2/3
f 194/2/3 192/2/3 193/2/3
f 195/4/3 194/4/3 193/4/3
f 196/2/3 192/2/3 194/2/3
f 196/4/3 194/4/3 195/4/3
f 197/2/3 196/2/3 195/2/3
f 198/2/3 192/2/3 196/2/3
f 198/2/3 196/2/3 197/2/3
f 201/4/3 200/4/3 199/4/3
f 202/4/3 200/4/3 201/4/3
f 205/4/3 204/4/3 203/4/3
f 206/4/3 204/4/3 205/4/3
f 209/2/3 208/2/3 207/2/3
f 210/2/3 208/2/3 209/2/3
f 211/2/3 208/2/3 210/2/3
f 213/2/3 208/2/3 211/2/3
f 214/2/3 213/2/3 212/2/3
f 215/2/3 208/2/3 213/2/3
f 215/2/3 213/2/3 214/2/3
f 218/2/3 208/2/3 215/2/3
f 219/2/3 217/2/3 216/2/3
f 219/2/3 218/2/3 217/2/3
f 220/2/3 208/2/3 218/2/3
f 220/2/3 218/2/3 219/2/3
f 223/2/3 222/2/3 221/2/3
f 224/2/3 222/2/3 223/2/3
f 225/2/3 222/2/3 224/2/3
f 226/2/3 222/2/3 225/2/3
f 230/2/3 228/2/3 227/2/3
f 231/2/3 230/2/3 229/2/3
f 232/2/3 228/2/3 230/2/3
f 232/2/3 230/2/3 231/2/3
f 237/3/3 234/3/3 233/3/3
f 238/3/3 234/3/3 237/3/3
f 242/3/3 240/3/3 239/3/3
f 242/3/3 241/3/3 240/3/3
f 243/3/3 241/3/3 242/3/3
f 244/3/3 241/3/3 243/3/3
f 245/3/3 236/3/3 235/3/3
f 246/3/3 236/3/3 245/3/3
f 249/3/3 248/3/3 247/3/3
f 250/3/3 248/3/3 249/3/3
f 256/3/3 252/3/3 251/3/3
f 257/3/3 252/3/3 256/3/3
f 258/3/3 252/3/3 257/3/3
f 259/3/3 252/3/3 258/3/3
f 261/1/3 254/1/3 253/1/3
f 262/1/3 254/1/3 261/1/3
f 264/3/3 256/3/3 255/3/3
f 264/3/3 257/3/3 256/3/3
f 265/3/3 257/3/3 264/3/3
f 266/3/3 260/3/3 259/3/3
f 266/3/3 259/3/3 258/3/3
f 267/3/3 260/3/3 266/3/3
f 268/3/3 260/3/3 267/3/3
f 270/3/3 269/3/3 268/3/3
f 270/3/3 268/3/3 267/3/3
f 271/3/3 269/3/3 270/3/3
f 273/3/3 269/3/3 271/3/3
f 276/3/3 264/3/3 263/3/3
f 277/3/3 264/3/3 276/3/3
f 280/3/3 273/3/3 272/3/3
f 281/3/3 269/3/3 273/3/3
f 281/3/3 273/3/3 280/3/3
f 282/3/3 269/3/3 281/3/3
f 283/1/3 275/1/3 274/1/3
f 284/1/3 275/1/3 283/1/3
f 285/3/3 278/3/3 277/3/3
f 286/3/3 278/3/3 285/3/3
f 287/3/3 278/3/3 286/3/3
f 288/3/3 280/3/3 279/3/3
f 288/3/3 281/3/3 280/3/3
f 289/3/3 281/3/3 288/3/3
f 290/3/3 281/3/3 289/3/3
f 291/3/3 287/3/3 286/3/3
f 291/3/3 289/3/3 288/3/3
f 291/3/3 288/3/3 287/3/3
f 292/3/3 289/3/3 291/3/3
f 295/2/3 294/2/3 293/2/3
f 296/2/3 294/2/3 295/2/3
f 297/2/3 294/2/3 296/2/3
f 301/2/3 299/2/3 298/2/3
f 301/2/3 300/2/3 299/2/3
f 302/2/3 300/2/3 301/2/3
f 305/1/3 304/1/3 303/1/3
f 306/1/3 304/1/3 305/1/3
f 309/1/3 308/1/3 307/1/3
f 310/1/3 308/1/3 309/1/3
f 313/2/3 312/2/3 311/2/3
f 314/2/3 312/2/3 313/2/3
f 317/2/3 316/2/3 315/2/3
f 318/2/3 316/2/3 317/2/3
f 321/2/3 320/2/3 319/2/3
f 322/2/3 320/2/3 321/2/3
f 323/2/4 324/2/4 325/2/4
f 325/2/4 324/2/4 326/2/4
f 327/2/4 328/2/4 329/2/4
f 329/2/4 328/2/4 330/2/4
f 331/3/4 332/3/4 333/3/4
f 333/3/4 332/3/4 334/3/4
f 334/3/4 332/3/4 335/3/4
f 335/3/4 336/3/4 339/3/4
f 334/3/4 335/3/4 339/3/4
f 337/3/4 338/3/4 341/3/4
f 341/3/4 338/3/4 342/3/4
f 339/3/4 340/3/4 343/3/4
f 334/3/4 339/3/4 343/3/4
f 343/3/4 340/3/4 344/3/4
f 334/3/4 343/3/4 346/3/4
f 346/3/4 343/3/4 347/3/4
f 347/3/4 343/3/4 348/3/4
f 345/3/4 346/3/4 349/3/4
f 346/3/4 347/3/4 349/3/4
f 349/3/4 347/3/4 350/3/4
f 351/2/4 352/2/4 353/2/4
f 353/2/4 352/2/4 354/2/4
f 355/2/4 356/2/4 357/2/4
f 357/2/4 356/2/4 358/2/4
f 359/2/4 360/2/4 361/2/4
f 361/2/4 360/2/4 362/2/4
f 362/2/4 360/2/4 363/2/4
f 363/2/4 360/2/4 364/2/4
f 362/2/4 363/2/4 365/2/4
f 364/2/4 360/2/4 366/2/4
f 362/2/4 365/2/4 368/2/4
f 365/2/4 366/2/4 368/2/4
f 367/2/4 368/2/4 369/2/4
f 366/2/4 360/2/4 370/2/4
f 369/2/4 368/2/4 370/2/4
f 368/2/4 366/2/4 370/2/4
f 371/2/4 372/2/4 373/2/4
f 373/2/4 372/2/4 374/2/4
f 379/1/5 376/1/5 375/1/5
f 380/1/5 376/1/5 379/1/5
f 381/1/5 378/1/5 377/1/5
f 382/1/5 378/1/5 381/1/5
f 383/2/5 380/2/5 379/2/5
f 384/2/5 380/2/5 383/2/5
f 385/2/5 382/2/5 381/2/5
f 386/2/5 382/2/5 385/2/5
f 391/1/5 388/1/5 387/1/5
f 392/1/5 388/1/5 391/1/5
f 393/1/5 390/1/5 389/1/5
f 394/1/5 390/1/5 393/1/5
f 395/2/5 392/2/5 391/2/5
f 396/2/5 392/2/5 395/2/5
f 397/2/5 394/2/5 393/2/5
f 398/2/5 394/2/5 397/2/5
f 401/3/5 400/3/5 399/3/5
f 402/3/5 400/3/5 401/3/5
f 405/2/5 404/2/5 403/2/5
f 406/2/5 404/2/5 405/2/5
f 410/3/5 408/3/5 407/3/5
f 411/3/5 408/3/5 410/3/5
f 413/3/5 410/3/5 409/3/5
f 414/3/5 410/3/5 413/3/5
f 415/3/5 412/3/5 411/3/5
f 416/3/5 412/3/5 415/3/5
f 418/2/5 415/2/5 414/2/5
f 419/2/5 415/2/5 418/2/5
f 421/2/5 418/2/5 417/2/5
f 421/2/5 420/2/5 419/2/5
f 421/2/5 419/2/5 418/2/5
f 422/2/5 420/2/5 421/2/5
f 423/2/5 420/2/5 422/2/5
f 424/2/5 420/2/5 423/2/5
f 425/2/5 423/2/5 422/2/5
f 426/2/5 423/2/5 425/2/5
f 431/2/5 428/2/5 427/2/5
f 431/4/5 429/4/5 428/4/5
f 432/2/5 430/2/5 429/2/5
f 432/4/5 429/4/5 431/4/5
f 434/2/5 431/2/5 427/2/5
f 434/2/5 432/2/5 431/2/5
f 435/2/5 430/2/5 432/2/5
f 435/2/5 432/2/5 434/2/5
f 437/2/5 434/2/5 433/2/5
f 437/2/5 436/2/5 435/2/5
f 437/2/5 435/2/5 434/2/5
f 438/2/5 436/2/5 437/2/5
f 443/3/5 440/3/5 439/3/5
f 444/3/5 440/3/5 443/3/5
f 445/3/5 442/3/5 441/3/5
f 446/3/5 442/3/5 445/3/5
f 451/3/5 448/3/5 447/3/5
f 452/3/5 448/3/5 451/3/5
f 453/3/5 450/3/5 449/3/5
f 454/3/5 450/3/5 453/3/5
f 457/2/5 456/2/5 455/2/5
f 458/2/5 456/2/5 457/2/5
f 463/2/5 460/2/5 459/2/5
f 464/2/5 460/2/5 463/2/5
f 465/2/5 462/2/5 461/2/5
f 466/2/5 462/2/5 465/2/5
f 467/1/6 468/1/6 471/1/6
f 471/1/6 468/1/6 472/1/6
f 469/1/6 470/1/6 473/1/6
f 473/1/6 470/1/6 474/1/6
f 475/1/6 476/1/6 479/1/6
f 479/1/6 476/1/6 480/1/6
f 477/1/6 478/1/6 481/1/6
f 481/1/6 478/1/6 482/1/6
f 483/2/6 484/2/6 485/2/6
f 485/2/6 484/2/6 486/2/6
f 486/2/6 484/2/6 487/2/6
f 487/2/6 484/2/6 488/2/6
f 486/2/6 487/2/6 489/2/6
f 489/2/6 487/2/6 490/2/6
f 491/4/6 492/4/6 495/4/6
f 495/4/6 492/4/6 496/4/6
f 493/4/6 494/4/6 497/4/6
f 497/4/6 494/4/6 498/4/6
f 499/2/6 500/2/6 501/2/6
f 501/2/6 500/2/6 502/2/6
f 503/2/6 504/2/6 505/2/6
f 505/2/6 504/2/6 506/2/6
f 506/2/6 504/2/6 507/2/6
f 507/2/6 504/2/6 508/2/6
f 506/2/6 507/2/6 511/2/6
f 511/2/6 507/2/6 512/2/6
f 509/3/6 510/3/6 515/3/6
f 515/3/6 510/3/6 516/3/6
f 513/3/6 514/3/6 517/3/6
f 517/3/6 514/3/6 518/3/6
f 519/2/6 520/2/6 521/2/6
f 521/2/6 520/2/6 522/2/6
f 523/2/6 524/2/6 527/2/6
f 527/2/6 524/2/6 528/2/6
f 528/2/6 524/2/6 529/2/6
f 525/2/6 526/2/6 530/2/6
f 530/2/6 526/2/6 531/2/6
f 531/2/6 526/2/6 532/2/6
f 528/3/6 529/3/6 535/3/6
f 535/3/6 529/3/6 536/3/6
f 530/3/6 531/3/6 537/3/6
f 537/3/6 531/3/6 538/3/6
f 533/3/6 534/3/6 541/3/6
f 541/3/6 534/3/6 542/3/6
f 539/3/6 540/3/6 543/3/6
f 543/3/6 540/3/6 544/3/6
f 545/3/6 546/3/6 549/3/6
f 549/3/6 546/3/6 550/3/6
f 547/3/6 548/3/6 553/3/6
f 553/3/6 548/3/6 554/3/6
f 551/3/6 552/3/6 555/3/6
f 555/3/6 552/3/6 556/3/6
f 557/3/6 558/3/6 559/3/6
f 559/3/6 558/3/6 560/3/6
