# MagicaVoxel @ Ephtracy

# group
o 

# material
mtllib magicavox.mtl
usemtl palette

# normals
vn -1 0 0
vn 1 0 0
vn 0 0 1
vn 0 0 -1
vn 0 -1 0
vn 0 1 0

# texcoords
vt 0.205078 0.5
vt 0.400391 0.5
vt 0.552734 0.5
vt 0.701172 0.5
vt 0.876953 0.5

# verts
v 2.6 2.3 -1.4
v 2.6 2.3 -1.9
v 2.6 2.4 -1.3
v 2.6 2.4 -1.4
v 2.6 2.4 -1.9
v 2.6 2.4 -2
v 2.6 2.5 -1.2
v 2.6 2.5 -1.3
v 2.6 2.5 -2
v 2.6 2.5 -2.1
v 2.6 2.7 -1.6
v 2.6 2.7 -1.7
v 2.6 2.8 -1.6
v 2.6 2.8 -1.7
v 2.6 3 -1.2
v 2.6 3 -1.3
v 2.6 3 -2
v 2.6 3 -2.1
v 2.6 3.1 -1.3
v 2.6 3.1 -1.4
v 2.6 3.1 -1.9
v 2.6 3.1 -2
v 2.6 3.2 -1.4
v 2.6 3.2 -1.9
v 2.7 2.7 -1.6
v 2.7 2.7 -1.7
v 2.7 2.8 -1.6
v 2.7 2.8 -1.7
v 2.8 2.4 -1.4
v 2.8 2.4 -1.5
v 2.8 2.4 -1.8
v 2.8 2.4 -1.9
v 2.8 2.5 -1.4
v 2.8 2.5 -1.5
v 2.8 2.5 -1.8
v 2.8 2.5 -1.9
v 2.9 2 -1.5
v 2.9 2 -1.6
v 2.9 2 -1.7
v 2.9 2 -1.8
v 2.9 2.1 -1.5
v 2.9 2.1 -1.6
v 2.9 2.1 -1.7
v 2.9 2.1 -1.8
v 2.9 2.2 -1.5
v 2.9 2.2 -1.6
v 2.9 2.2 -1.7
v 2.9 2.2 -1.8
v 2.9 2.4 -1.5
v 2.9 2.4 -1.8
v 3 2.4 -1.3
v 3 2.4 -1.4
v 3 2.4 -1.9
v 3 2.4 -2
v 3 2.5 -1.3
v 3 2.5 -1.4
v 3 2.5 -1.9
v 3 2.5 -2
v 2.7 2.3 -1.4
v 2.7 2.3 -1.9
v 2.7 2.4 -1.3
v 2.7 2.4 -1.4
v 2.7 2.4 -1.5
v 2.7 2.4 -1.8
v 2.7 2.4 -1.9
v 2.7 2.4 -2
v 2.7 2.5 -1.2
v 2.7 2.5 -1.3
v 2.7 2.5 -1.4
v 2.7 2.5 -1.5
v 2.7 2.5 -1.8
v 2.7 2.5 -1.9
v 2.7 2.5 -2
v 2.7 2.5 -2.1
v 2.7 2.6 -1.3
v 2.7 2.6 -1.4
v 2.7 2.6 -1.9
v 2.7 2.6 -2
v 2.7 2.9 -1.3
v 2.7 2.9 -1.4
v 2.7 2.9 -1.9
v 2.7 2.9 -2
v 2.7 3 -1.2
v 2.7 3 -1.3
v 2.7 3 -1.4
v 2.7 3 -1.5
v 2.7 3 -1.8
v 2.7 3 -1.9
v 2.7 3 -2
v 2.7 3 -2.1
v 2.7 3.1 -1.3
v 2.7 3.1 -1.4
v 2.7 3.1 -1.5
v 2.7 3.1 -1.8
v 2.7 3.1 -1.9
v 2.7 3.1 -2
v 2.7 3.2 -1.4
v 2.7 3.2 -1.9
v 2.8 2.6 -1.3
v 2.8 2.6 -1.4
v 2.8 2.6 -1.9
v 2.8 2.6 -2
v 2.8 2.9 -1.3
v 2.8 2.9 -1.4
v 2.8 2.9 -1.9
v 2.8 2.9 -2
v 2.8 3 -1.4
v 2.8 3 -1.5
v 2.8 3 -1.8
v 2.8 3 -1.9
v 2.8 3.1 -1.5
v 2.8 3.1 -1.8
v 2.9 2.5 -1.5
v 2.9 2.5 -1.6
v 2.9 2.5 -1.7
v 2.9 2.5 -1.8
v 2.9 2.6 -1.5
v 2.9 2.6 -1.6
v 2.9 2.6 -1.7
v 2.9 2.6 -1.8
v 3.1 2 -1.5
v 3.1 2 -1.6
v 3.1 2 -1.7
v 3.1 2 -1.8
v 3.1 2.1 -1.5
v 3.1 2.1 -1.6
v 3.1 2.1 -1.7
v 3.1 2.1 -1.8
v 3.1 2.2 -1.5
v 3.1 2.2 -1.6
v 3.1 2.2 -1.7
v 3.1 2.2 -1.8
v 3.1 2.4 -1.3
v 3.1 2.4 -1.4
v 3.1 2.4 -1.5
v 3.1 2.4 -1.8
v 3.1 2.4 -1.9
v 3.1 2.4 -2
v 3.1 2.5 -1.3
v 3.1 2.5 -1.4
v 3.1 2.5 -1.5
v 3.1 2.5 -1.6
v 3.1 2.5 -1.7
v 3.1 2.5 -1.8
v 3.1 2.5 -1.9
v 3.1 2.5 -2
v 3.1 2.6 -1.5
v 3.1 2.6 -1.6
v 3.1 2.6 -1.7
v 3.1 2.6 -1.8
v 3.1 2.7 -1.5
v 3.1 2.7 -1.6
v 3.1 2.7 -1.7
v 3.1 2.7 -1.8
v 3.1 2.8 -1.5
v 3.1 2.8 -1.6
v 3.1 2.8 -1.7
v 3.1 2.8 -1.8
v 3.1 2.9 -1.4
v 3.1 2.9 -1.9
v 3.2 2.7 -1.5
v 3.2 2.7 -1.6
v 3.2 2.7 -1.7
v 3.2 2.7 -1.8
v 3.2 2.8 -1.5
v 3.2 2.8 -1.6
v 3.2 2.8 -1.7
v 3.2 2.8 -1.8
v 2.6 2.5 -1.2
v 2.6 3 -1.2
v 2.7 2.5 -1.2
v 2.7 3 -1.2
v 2.6 2.4 -1.3
v 2.6 2.5 -1.3
v 2.6 3 -1.3
v 2.6 3.1 -1.3
v 2.7 2.4 -1.3
v 2.7 2.5 -1.3
v 2.7 2.6 -1.3
v 2.7 2.9 -1.3
v 2.7 3 -1.3
v 2.7 3.1 -1.3
v 2.8 2.6 -1.3
v 2.8 2.9 -1.3
v 3 2.4 -1.3
v 3 2.5 -1.3
v 3.1 2.4 -1.3
v 3.1 2.5 -1.3
v 2.6 2.3 -1.4
v 2.6 2.4 -1.4
v 2.6 3.1 -1.4
v 2.6 3.2 -1.4
v 2.7 2.3 -1.4
v 2.7 2.4 -1.4
v 2.7 2.5 -1.4
v 2.7 2.6 -1.4
v 2.7 2.9 -1.4
v 2.7 3 -1.4
v 2.7 3.1 -1.4
v 2.7 3.2 -1.4
v 2.8 2.4 -1.4
v 2.8 2.5 -1.4
v 2.8 2.6 -1.4
v 2.8 2.9 -1.4
v 2.8 3 -1.4
v 3 2.4 -1.4
v 3 2.5 -1.4
v 3.1 2.5 -1.4
v 3.1 2.9 -1.4
v 2.7 2.4 -1.5
v 2.7 2.5 -1.5
v 2.7 3 -1.5
v 2.7 3.1 -1.5
v 2.8 2.4 -1.5
v 2.8 2.5 -1.5
v 2.8 3 -1.5
v 2.8 3.1 -1.5
v 2.9 2 -1.5
v 2.9 2.1 -1.5
v 2.9 2.2 -1.5
v 2.9 2.4 -1.5
v 3 2.4 -1.5
v 3.1 2 -1.5
v 3.1 2.1 -1.5
v 3.1 2.2 -1.5
v 3.1 2.4 -1.5
v 3.1 2.7 -1.5
v 3.1 2.8 -1.5
v 3.2 2.7 -1.5
v 3.2 2.8 -1.5
v 2.9 2.5 -1.6
v 2.9 2.6 -1.6
v 3.1 2.5 -1.6
v 3.1 2.6 -1.6
v 2.6 2.7 -1.7
v 2.6 2.8 -1.7
v 2.7 2.7 -1.7
v 2.7 2.8 -1.7
v 2.9 2 -1.7
v 2.9 2.1 -1.7
v 2.9 2.2 -1.7
v 3.1 2 -1.7
v 3.1 2.1 -1.7
v 3.1 2.2 -1.7
v 3.1 2.7 -1.7
v 3.1 2.8 -1.7
v 3.2 2.7 -1.7
v 3.2 2.8 -1.7
v 2.9 2.5 -1.8
v 2.9 2.6 -1.8
v 3.1 2.5 -1.8
v 3.1 2.6 -1.8
v 2.9 2.5 -1.5
v 2.9 2.6 -1.5
v 3.1 2.5 -1.5
v 3.1 2.6 -1.5
v 2.6 2.7 -1.6
v 2.6 2.8 -1.6
v 2.7 2.7 -1.6
v 2.7 2.8 -1.6
v 2.9 2 -1.6
v 2.9 2.1 -1.6
v 2.9 2.2 -1.6
v 3.1 2 -1.6
v 3.1 2.1 -1.6
v 3.1 2.2 -1.6
v 3.1 2.7 -1.6
v 3.1 2.8 -1.6
v 3.2 2.7 -1.6
v 3.2 2.8 -1.6
v 2.9 2.5 -1.7
v 2.9 2.6 -1.7
v 3.1 2.5 -1.7
v 3.1 2.6 -1.7
v 2.7 2.4 -1.8
v 2.7 2.5 -1.8
v 2.7 3 -1.8
v 2.7 3.1 -1.8
v 2.8 2.4 -1.8
v 2.8 2.5 -1.8
v 2.8 3 -1.8
v 2.8 3.1 -1.8
v 2.9 2 -1.8
v 2.9 2.1 -1.8
v 2.9 2.2 -1.8
v 2.9 2.4 -1.8
v 3 2.4 -1.8
v 3.1 2 -1.8
v 3.1 2.1 -1.8
v 3.1 2.2 -1.8
v 3.1 2.4 -1.8
v 3.1 2.7 -1.8
v 3.1 2.8 -1.8
v 3.2 2.7 -1.8
v 3.2 2.8 -1.8
v 2.6 2.3 -1.9
v 2.6 2.4 -1.9
v 2.6 3.1 -1.9
v 2.6 3.2 -1.9
v 2.7 2.3 -1.9
v 2.7 2.4 -1.9
v 2.7 2.5 -1.9
v 2.7 2.6 -1.9
v 2.7 2.9 -1.9
v 2.7 3 -1.9
v 2.7 3.1 -1.9
v 2.7 3.2 -1.9
v 2.8 2.4 -1.9
v 2.8 2.5 -1.9
v 2.8 2.6 -1.9
v 2.8 2.9 -1.9
v 2.8 3 -1.9
v 3 2.4 -1.9
v 3 2.5 -1.9
v 3.1 2.5 -1.9
v 3.1 2.9 -1.9
v 2.6 2.4 -2
v 2.6 2.5 -2
v 2.6 3 -2
v 2.6 3.1 -2
v 2.7 2.4 -2
v 2.7 2.5 -2
v 2.7 2.6 -2
v 2.7 2.9 -2
v 2.7 3 -2
v 2.7 3.1 -2
v 2.8 2.6 -2
v 2.8 2.9 -2
v 3 2.4 -2
v 3 2.5 -2
v 3.1 2.4 -2
v 3.1 2.5 -2
v 2.6 2.5 -2.1
v 2.6 3 -2.1
v 2.7 2.5 -2.1
v 2.7 3 -2.1
v 2.9 2 -1.5
v 3.1 2 -1.5
v 2.9 2 -1.6
v 3.1 2 -1.6
v 2.9 2 -1.7
v 3.1 2 -1.7
v 2.9 2 -1.8
v 3.1 2 -1.8
v 2.9 2.2 -1.6
v 3.1 2.2 -1.6
v 2.9 2.2 -1.7
v 3.1 2.2 -1.7
v 2.6 2.3 -1.4
v 2.7 2.3 -1.4
v 2.6 2.3 -1.9
v 2.7 2.3 -1.9
v 2.6 2.4 -1.3
v 2.7 2.4 -1.3
v 3 2.4 -1.3
v 3.1 2.4 -1.3
v 2.6 2.4 -1.4
v 2.7 2.4 -1.4
v 2.8 2.4 -1.4
v 3 2.4 -1.4
v 3.1 2.4 -1.4
v 2.7 2.4 -1.5
v 2.8 2.4 -1.5
v 2.9 2.4 -1.5
v 3 2.4 -1.5
v 3.1 2.4 -1.5
v 2.7 2.4 -1.8
v 2.8 2.4 -1.8
v 2.9 2.4 -1.8
v 3 2.4 -1.8
v 3.1 2.4 -1.8
v 2.6 2.4 -1.9
v 2.7 2.4 -1.9
v 2.8 2.4 -1.9
v 3 2.4 -1.9
v 3.1 2.4 -1.9
v 2.6 2.4 -2
v 2.7 2.4 -2
v 3 2.4 -2
v 3.1 2.4 -2
v 2.6 2.5 -1.2
v 2.7 2.5 -1.2
v 2.6 2.5 -1.3
v 2.7 2.5 -1.3
v 2.7 2.5 -1.4
v 2.8 2.5 -1.4
v 2.7 2.5 -1.5
v 2.8 2.5 -1.5
v 2.7 2.5 -1.8
v 2.8 2.5 -1.8
v 2.7 2.5 -1.9
v 2.8 2.5 -1.9
v 2.6 2.5 -2
v 2.7 2.5 -2
v 2.6 2.5 -2.1
v 2.7 2.5 -2.1
v 2.7 2.6 -1.3
v 2.8 2.6 -1.3
v 2.7 2.6 -1.4
v 2.8 2.6 -1.4
v 2.9 2.6 -1.5
v 3.1 2.6 -1.5
v 2.9 2.6 -1.6
v 3.1 2.6 -1.6
v 2.9 2.6 -1.7
v 3.1 2.6 -1.7
v 2.9 2.6 -1.8
v 3.1 2.6 -1.8
v 2.7 2.6 -1.9
v 2.8 2.6 -1.9
v 2.7 2.6 -2
v 2.8 2.6 -2
v 3.1 2.7 -1.5
v 3.2 2.7 -1.5
v 3.1 2.7 -1.6
v 3.2 2.7 -1.6
v 3.1 2.7 -1.7
v 3.2 2.7 -1.7
v 3.1 2.7 -1.8
v 3.2 2.7 -1.8
v 2.6 2.8 -1.6
v 2.7 2.8 -1.6
v 2.6 2.8 -1.7
v 2.7 2.8 -1.7
v 3 2.5 -1.3
v 3.1 2.5 -1.3
v 3 2.5 -1.4
v 3.1 2.5 -1.4
v 2.9 2.5 -1.5
v 3.1 2.5 -1.5
v 2.9 2.5 -1.6
v 3.1 2.5 -1.6
v 2.9 2.5 -1.7
v 3.1 2.5 -1.7
v 2.9 2.5 -1.8
v 3.1 2.5 -1.8
v 3 2.5 -1.9
v 3.1 2.5 -1.9
v 3 2.5 -2
v 3.1 2.5 -2
v 2.6 2.7 -1.6
v 2.7 2.7 -1.6
v 2.6 2.7 -1.7
v 2.7 2.7 -1.7
v 3.1 2.8 -1.5
v 3.2 2.8 -1.5
v 3.1 2.8 -1.6
v 3.2 2.8 -1.6
v 3.1 2.8 -1.7
v 3.2 2.8 -1.7
v 3.1 2.8 -1.8
v 3.2 2.8 -1.8
v 2.7 2.9 -1.3
v 2.8 2.9 -1.3
v 2.7 2.9 -1.4
v 2.8 2.9 -1.4
v 3.1 2.9 -1.4
v 2.7 2.9 -1.9
v 2.8 2.9 -1.9
v 3.1 2.9 -1.9
v 2.7 2.9 -2
v 2.8 2.9 -2
v 2.6 3 -1.2
v 2.7 3 -1.2
v 2.6 3 -1.3
v 2.7 3 -1.3
v 2.7 3 -1.4
v 2.8 3 -1.4
v 2.7 3 -1.5
v 2.8 3 -1.5
v 2.7 3 -1.8
v 2.8 3 -1.8
v 2.7 3 -1.9
v 2.8 3 -1.9
v 2.6 3 -2
v 2.7 3 -2
v 2.6 3 -2.1
v 2.7 3 -2.1
v 2.6 3.1 -1.3
v 2.7 3.1 -1.3
v 2.6 3.1 -1.4
v 2.7 3.1 -1.4
v 2.7 3.1 -1.5
v 2.8 3.1 -1.5
v 2.7 3.1 -1.8
v 2.8 3.1 -1.8
v 2.6 3.1 -1.9
v 2.7 3.1 -1.9
v 2.6 3.1 -2
v 2.7 3.1 -2
v 2.6 3.2 -1.4
v 2.7 3.2 -1.4
v 2.6 3.2 -1.9
v 2.7 3.2 -1.9

# faces
f 4/5/1 2/5/1 1/5/1
f 5/5/1 2/5/1 4/5/1
f 8/5/1 4/5/1 3/5/1
f 8/5/1 6/5/1 5/5/1
f 8/5/1 5/5/1 4/5/1
f 9/5/1 6/5/1 8/5/1
f 11/5/1 8/5/1 7/5/1
f 11/5/1 10/5/1 9/5/1
f 11/5/1 9/5/1 8/5/1
f 12/5/1 10/5/1 11/5/1
f 13/5/1 11/5/1 7/5/1
f 14/5/1 10/5/1 12/5/1
f 15/5/1 13/5/1 7/5/1
f 15/5/1 14/5/1 13/5/1
f 16/5/1 14/5/1 15/5/1
f 17/5/1 10/5/1 14/5/1
f 17/5/1 14/5/1 16/5/1
f 18/5/1 10/5/1 17/5/1
f 19/5/1 17/5/1 16/5/1
f 20/5/1 17/5/1 19/5/1
f 21/5/1 17/5/1 20/5/1
f 22/5/1 17/5/1 21/5/1
f 23/5/1 21/5/1 20/5/1
f 24/5/1 21/5/1 23/5/1
f 27/5/1 26/5/1 25/5/1
f 28/5/1 26/5/1 27/5/1
f 33/2/1 30/2/1 29/2/1
f 34/2/1 30/2/1 33/2/1
f 35/2/1 32/2/1 31/2/1
f 36/2/1 32/2/1 35/2/1
f 41/3/1 38/3/1 37/3/1
f 42/3/1 38/3/1 41/3/1
f 43/3/1 40/3/1 39/3/1
f 44/3/1 40/3/1 43/3/1
f 45/2/1 42/2/1 41/2/1
f 46/2/1 42/2/1 45/2/1
f 47/2/1 44/2/1 43/2/1
f 48/2/1 44/2/1 47/2/1
f 49/5/1 46/5/1 45/5/1
f 49/5/1 47/5/1 46/5/1
f 49/5/1 48/5/1 47/5/1
f 50/5/1 48/5/1 49/5/1
f 55/2/1 52/2/1 51/2/1
f 56/2/1 52/2/1 55/2/1
f 57/2/1 54/2/1 53/2/1
f 58/2/1 54/2/1 57/2/1
f 59/5/2 60/5/2 62/5/2
f 62/5/2 60/5/2 63/5/2
f 63/5/2 60/5/2 64/5/2
f 64/5/2 60/5/2 65/5/2
f 61/5/2 62/5/2 68/5/2
f 62/5/2 63/5/2 68/5/2
f 68/5/2 63/5/2 69/5/2
f 69/5/2 63/5/2 70/5/2
f 64/5/2 65/5/2 71/5/2
f 65/5/2 66/5/2 71/5/2
f 71/5/2 66/5/2 72/5/2
f 72/5/2 66/5/2 73/5/2
f 68/5/2 69/5/2 75/5/2
f 67/5/2 68/5/2 75/5/2
f 75/5/2 69/5/2 76/5/2
f 73/5/2 74/5/2 77/5/2
f 72/5/2 73/5/2 77/5/2
f 77/5/2 74/5/2 78/5/2
f 67/5/2 75/5/2 79/5/2
f 78/5/2 74/5/2 82/5/2
f 79/5/2 80/5/2 83/5/2
f 67/5/2 79/5/2 83/5/2
f 83/5/2 80/5/2 84/5/2
f 84/5/2 80/5/2 85/5/2
f 81/5/2 82/5/2 88/5/2
f 82/5/2 74/5/2 89/5/2
f 88/5/2 82/5/2 89/5/2
f 89/5/2 74/5/2 90/5/2
f 85/5/2 86/5/2 91/5/2
f 84/5/2 85/5/2 91/5/2
f 91/5/2 86/5/2 92/5/2
f 92/5/2 86/5/2 93/5/2
f 87/5/2 88/5/2 94/5/2
f 88/5/2 89/5/2 94/5/2
f 94/5/2 89/5/2 95/5/2
f 95/5/2 89/5/2 96/5/2
f 92/5/2 93/5/2 97/5/2
f 94/5/2 95/5/2 97/5/2
f 93/5/2 94/5/2 97/5/2
f 97/5/2 95/5/2 98/5/2
f 99/5/2 100/5/2 103/5/2
f 103/5/2 100/5/2 104/5/2
f 101/5/2 102/5/2 105/5/2
f 105/5/2 102/5/2 106/5/2
f 104/5/2 105/5/2 107/5/2
f 107/5/2 105/5/2 108/5/2
f 108/5/2 105/5/2 109/5/2
f 109/5/2 105/5/2 110/5/2
f 108/5/2 109/5/2 111/5/2
f 111/5/2 109/5/2 112/5/2
f 113/2/2 114/2/2 117/2/2
f 117/2/2 114/2/2 118/2/2
f 115/2/2 116/2/2 119/2/2
f 119/2/2 116/2/2 120/2/2
f 121/3/2 122/3/2 125/3/2
f 125/3/2 122/3/2 126/3/2
f 123/3/2 124/3/2 127/3/2
f 127/3/2 124/3/2 128/3/2
f 125/2/2 126/2/2 129/2/2
f 129/2/2 126/2/2 130/2/2
f 127/2/2 128/2/2 131/2/2
f 131/2/2 128/2/2 132/2/2
f 129/5/2 130/5/2 135/5/2
f 130/5/2 131/5/2 135/5/2
f 131/5/2 132/5/2 135/5/2
f 135/5/2 132/5/2 136/5/2
f 133/2/2 134/2/2 139/2/2
f 134/1/2 135/1/2 140/1/2
f 139/2/2 134/2/2 140/2/2
f 135/5/2 136/5/2 141/5/2
f 140/1/2 135/1/2 141/1/2
f 141/5/2 136/5/2 142/5/2
f 142/5/2 136/5/2 143/5/2
f 136/1/2 137/1/2 144/1/2
f 143/5/2 136/5/2 144/5/2
f 137/2/2 138/2/2 145/2/2
f 144/1/2 137/1/2 145/1/2
f 145/2/2 138/2/2 146/2/2
f 140/2/2 141/2/2 147/2/2
f 142/5/2 143/5/2 148/5/2
f 148/5/2 143/5/2 149/5/2
f 144/2/2 145/2/2 150/2/2
f 148/1/2 149/1/2 151/1/2
f 149/1/2 150/1/2 151/1/2
f 140/2/2 147/2/2 151/2/2
f 147/1/2 148/1/2 151/1/2
f 151/1/2 150/1/2 152/1/2
f 152/1/2 150/1/2 153/1/2
f 150/2/2 145/2/2 154/2/2
f 153/1/2 150/1/2 154/1/2
f 140/2/2 151/2/2 155/2/2
f 152/1/2 153/1/2 156/1/2
f 156/1/2 153/1/2 157/1/2
f 154/2/2 145/2/2 158/2/2
f 140/2/2 155/2/2 159/2/2
f 157/2/2 158/2/2 159/2/2
f 156/2/2 157/2/2 159/2/2
f 155/2/2 156/2/2 159/2/2
f 158/2/2 145/2/2 160/2/2
f 159/2/2 158/2/2 160/2/2
f 161/4/2 162/4/2 165/4/2
f 165/4/2 162/4/2 166/4/2
f 163/4/2 164/4/2 167/4/2
f 167/4/2 164/4/2 168/4/2
f 171/5/3 170/5/3 169/5/3
f 172/5/3 170/5/3 171/5/3
f 177/5/3 174/5/3 173/5/3
f 178/5/3 174/5/3 177/5/3
f 181/5/3 176/5/3 175/5/3
f 182/5/3 176/5/3 181/5/3
f 183/5/3 180/5/3 179/5/3
f 184/5/3 180/5/3 183/5/3
f 187/2/3 186/2/3 185/2/3
f 188/2/3 186/2/3 187/2/3
f 193/5/3 190/5/3 189/5/3
f 194/5/3 190/5/3 193/5/3
f 199/5/3 192/5/3 191/5/3
f 200/5/3 192/5/3 199/5/3
f 202/5/3 196/5/3 195/5/3
f 203/5/3 196/5/3 202/5/3
f 204/5/3 198/5/3 197/5/3
f 205/5/3 198/5/3 204/5/3
f 206/2/3 203/2/3 202/2/3
f 206/2/3 202/2/3 201/2/3
f 206/2/3 204/2/3 203/2/3
f 207/2/3 204/2/3 206/2/3
f 208/2/3 204/2/3 207/2/3
f 209/2/3 204/2/3 208/2/3
f 214/5/3 211/5/3 210/5/3
f 215/5/3 211/5/3 214/5/3
f 216/5/3 213/5/3 212/5/3
f 217/5/3 213/5/3 216/5/3
f 222/5/3 221/5/3 220/5/3
f 223/3/3 219/3/3 218/3/3
f 224/2/3 220/2/3 219/2/3
f 224/3/3 219/3/3 223/3/3
f 225/5/3 222/5/3 220/5/3
f 225/2/3 220/2/3 224/2/3
f 226/5/3 222/5/3 225/5/3
f 229/4/3 228/4/3 227/4/3
f 230/4/3 228/4/3 229/4/3
f 233/5/3 232/5/3 231/5/3
f 234/5/3 232/5/3 233/5/3
f 237/5/3 236/5/3 235/5/3
f 238/5/3 236/5/3 237/5/3
f 242/3/3 240/3/3 239/3/3
f 243/2/3 241/2/3 240/2/3
f 243/3/3 240/3/3 242/3/3
f 244/2/3 241/2/3 243/2/3
f 247/4/3 246/4/3 245/4/3
f 248/4/3 246/4/3 247/4/3
f 251/2/3 250/2/3 249/2/3
f 252/2/3 250/2/3 251/2/3
f 253/2/4 254/2/4 255/2/4
f 255/2/4 254/2/4 256/2/4
f 257/5/4 258/5/4 259/5/4
f 259/5/4 258/5/4 260/5/4
f 261/3/4 262/3/4 264/3/4
f 262/2/4 263/2/4 265/2/4
f 264/3/4 262/3/4 265/3/4
f 265/2/4 263/2/4 266/2/4
f 267/4/4 268/4/4 269/4/4
f 269/4/4 268/4/4 270/4/4
f 271/5/4 272/5/4 273/5/4
f 273/5/4 272/5/4 274/5/4
f 275/5/4 276/5/4 279/5/4
f 279/5/4 276/5/4 280/5/4
f 277/5/4 278/5/4 281/5/4
f 281/5/4 278/5/4 282/5/4
f 285/5/4 286/5/4 287/5/4
f 283/3/4 284/3/4 288/3/4
f 284/2/4 285/2/4 289/2/4
f 288/3/4 284/3/4 289/3/4
f 285/5/4 287/5/4 290/5/4
f 289/2/4 285/2/4 290/2/4
f 290/5/4 287/5/4 291/5/4
f 292/4/4 293/4/4 294/4/4
f 294/4/4 293/4/4 295/4/4
f 296/5/4 297/5/4 300/5/4
f 300/5/4 297/5/4 301/5/4
f 298/5/4 299/5/4 306/5/4
f 306/5/4 299/5/4 307/5/4
f 302/5/4 303/5/4 309/5/4
f 309/5/4 303/5/4 310/5/4
f 304/5/4 305/5/4 311/5/4
f 311/5/4 305/5/4 312/5/4
f 309/2/4 310/2/4 313/2/4
f 308/2/4 309/2/4 313/2/4
f 310/2/4 311/2/4 313/2/4
f 313/2/4 311/2/4 314/2/4
f 314/2/4 311/2/4 315/2/4
f 315/2/4 311/2/4 316/2/4
f 317/5/4 318/5/4 321/5/4
f 321/5/4 318/5/4 322/5/4
f 319/5/4 320/5/4 325/5/4
f 325/5/4 320/5/4 326/5/4
f 323/5/4 324/5/4 327/5/4
f 327/5/4 324/5/4 328/5/4
f 329/2/4 330/2/4 331/2/4
f 331/2/4 330/2/4 332/2/4
f 333/5/4 334/5/4 335/5/4
f 335/5/4 334/5/4 336/5/4
f 339/3/5 338/3/5 337/3/5
f 340/3/5 338/3/5 339/3/5
f 343/3/5 342/3/5 341/3/5
f 344/3/5 342/3/5 343/3/5
f 347/5/5 346/5/5 345/5/5
f 348/5/5 346/5/5 347/5/5
f 351/5/5 350/5/5 349/5/5
f 352/5/5 350/5/5 351/5/5
f 357/5/5 354/5/5 353/5/5
f 358/5/5 354/5/5 357/5/5
f 360/2/5 356/2/5 355/2/5
f 361/2/5 356/2/5 360/2/5
f 363/2/5 360/2/5 359/2/5
f 364/2/5 360/2/5 363/2/5
f 365/1/5 361/1/5 360/1/5
f 365/2/5 360/2/5 364/2/5
f 366/1/5 361/1/5 365/1/5
f 367/5/5 363/5/5 362/5/5
f 368/2/5 364/2/5 363/2/5
f 368/5/5 363/5/5 367/5/5
f 369/2/5 364/2/5 368/2/5
f 374/2/5 369/2/5 368/2/5
f 374/2/5 370/2/5 369/2/5
f 375/1/5 371/1/5 370/1/5
f 375/2/5 370/2/5 374/2/5
f 376/1/5 371/1/5 375/1/5
f 377/5/5 373/5/5 372/5/5
f 378/5/5 373/5/5 377/5/5
f 379/2/5 376/2/5 375/2/5
f 380/2/5 376/2/5 379/2/5
f 383/5/5 382/5/5 381/5/5
f 384/5/5 382/5/5 383/5/5
f 387/5/5 386/5/5 385/5/5
f 388/5/5 386/5/5 387/5/5
f 391/5/5 390/5/5 389/5/5
f 392/5/5 390/5/5 391/5/5
f 395/5/5 394/5/5 393/5/5
f 396/5/5 394/5/5 395/5/5
f 399/5/5 398/5/5 397/5/5
f 400/5/5 398/5/5 399/5/5
f 403/1/5 402/1/5 401/1/5
f 404/1/5 402/1/5 403/1/5
f 407/1/5 406/1/5 405/1/5
f 408/1/5 406/1/5 407/1/5
f 411/5/5 410/5/5 409/5/5
f 412/5/5 410/5/5 411/5/5
f 415/4/5 414/4/5 413/4/5
f 416/4/5 414/4/5 415/4/5
f 419/4/5 418/4/5 417/4/5
f 420/4/5 418/4/5 419/4/5
f 423/5/5 422/5/5 421/5/5
f 424/5/5 422/5/5 423/5/5
f 425/2/6 426/2/6 427/2/6
f 427/2/6 426/2/6 428/2/6
f 429/5/6 430/5/6 431/5/6
f 431/5/6 430/5/6 432/5/6
f 433/5/6 434/5/6 435/5/6
f 435/5/6 434/5/6 436/5/6
f 437/2/6 438/2/6 439/2/6
f 439/2/6 438/2/6 440/2/6
f 441/5/6 442/5/6 443/5/6
f 443/5/6 442/5/6 444/5/6
f 445/4/6 446/4/6 447/4/6
f 447/4/6 446/4/6 448/4/6
f 449/4/6 450/4/6 451/4/6
f 451/4/6 450/4/6 452/4/6
f 453/5/6 454/5/6 455/5/6
f 455/5/6 454/5/6 456/5/6
f 456/2/6 457/2/6 459/2/6
f 459/2/6 457/2/6 460/2/6
f 458/5/6 459/5/6 461/5/6
f 461/5/6 459/5/6 462/5/6
f 463/5/6 464/5/6 465/5/6
f 465/5/6 464/5/6 466/5/6
f 467/5/6 468/5/6 469/5/6
f 469/5/6 468/5/6 470/5/6
f 471/5/6 472/5/6 473/5/6
f 473/5/6 472/5/6 474/5/6
f 475/5/6 476/5/6 477/5/6
f 477/5/6 476/5/6 478/5/6
f 479/5/6 480/5/6 481/5/6
f 481/5/6 480/5/6 482/5/6
f 483/5/6 484/5/6 485/5/6
f 485/5/6 484/5/6 486/5/6
f 487/5/6 488/5/6 489/5/6
f 489/5/6 488/5/6 490/5/6
f 491/5/6 492/5/6 493/5/6
f 493/5/6 492/5/6 494/5/6
